/* XPM */
static char * close_pressed_xpm[] = {
"24 26 112 2",
"  	c #21476D",
". 	c #21486C",
"+ 	c #21476C",
"@ 	c #21486D",
"# 	c #20476C",
"$ 	c #20476D",
"% 	c #21476B",
"& 	c #20476B",
"* 	c #20466B",
"= 	c #21466C",
"- 	c #21466B",
"; 	c #20466A",
"> 	c #20476A",
", 	c #21466A",
"' 	c #1F4669",
") 	c #204569",
"! 	c #20456A",
"~ 	c #1F466A",
"{ 	c #204669",
"] 	c #1F4569",
"^ 	c #1F4468",
"/ 	c #1F4568",
"( 	c #204568",
"_ 	c #204468",
": 	c #1F4467",
"< 	c #1E4467",
"[ 	c #1F4367",
"} 	c #1F4366",
"| 	c #1E4466",
"1 	c #1F4365",
"2 	c #1F4466",
"3 	c #1E4366",
"4 	c #1E4365",
"5 	c #1E4265",
"6 	c #1F4264",
"7 	c #1E4264",
"8 	c #1E4364",
"9 	c #1E4164",
"0 	c #1D4264",
"a 	c #1D4164",
"b 	c #1E4263",
"c 	c #1E4163",
"d 	c #1D4263",
"e 	c #1D4163",
"f 	c #1E4162",
"g 	c #949AA0",
"h 	c #1D4062",
"i 	c #1D4162",
"j 	c #1D4161",
"k 	c #1D4061",
"l 	c #1C4061",
"m 	c #1C4060",
"n 	c #1C3F61",
"o 	c #1D3F61",
"p 	c #1C3F5F",
"q 	c #1C3F60",
"r 	c #1D3F60",
"s 	c #1C3E5E",
"t 	c #1C3E5F",
"u 	c #1C3F5E",
"v 	c #1B3E5F",
"w 	c #1B3E5E",
"x 	c #1C3D5E",
"y 	c #1B3D5D",
"z 	c #1B3D5E",
"A 	c #1C3D5D",
"B 	c #1B3E5D",
"C 	c #1C3E5D",
"D 	c #1B3D5C",
"E 	c #1B3C5D",
"F 	c #1C3C5C",
"G 	c #1B3C5C",
"H 	c #1A3C5B",
"I 	c #1B3C5B",
"J 	c #1A3C5C",
"K 	c #1A3B5A",
"L 	c #1B3B5A",
"M 	c #1A3C5A",
"N 	c #1A3B5B",
"O 	c #1B3C5A",
"P 	c #1B3B5B",
"Q 	c #1A3A59",
"R 	c #1A3A5A",
"S 	c #1A3B59",
"T 	c #1A3A58",
"U 	c #1A3958",
"V 	c #193A59",
"W 	c #193A58",
"X 	c #193958",
"Y 	c #193957",
"Z 	c #1A3957",
"` 	c #193A57",
" .	c #193956",
"..	c #183856",
"+.	c #193856",
"@.	c #183956",
"#.	c #183955",
"$.	c #183855",
"%.	c #193855",
"&.	c #183755",
"*.	c #183854",
"=.	c #183754",
"-.	c #193755",
";.	c #193754",
">.	c #183753",
",.	c #183654",
"'.	c #173753",
").	c #183653",
"!.	c #173652",
"~.	c #173653",
"{.	c #183652",
"].	c #2A3E52",
"  .   + @ @ . @ + . # $ +   @ # @ + @   . + . @ ",
"# % & & % + # * # & & & & & # & # % % & # & = - ",
"; ; * ; > * ; > * ; ; ; > > ; ; * , * ; ; > > - ",
"' ) ' ! ) ' ~ ) { ] ) ; ) ) ) ' ' ! { ' { ) ' ~ ",
"] ^ ] ^ / / ( ) ( ) ( / ^ / / _ ( ^ / ( ^ / / / ",
": : : : : < : : : [ < : : : : : : : : : [ : : [ ",
"} } | 1 2 2 } } } 3 } 3 3 1 3 } } 3 3 3 } } } } ",
"4 5 5 5 6 5 5 7 4 5 5 5 5 4 4 4 4 7 1 5 5 4 4 8 ",
"9 9 9 0 7 7 a b c a 9 0 9 7 d 7 7 7 7 a 7 7 a a ",
"c b e e e f e e g g c e c f g g c e e e e c e c ",
"h i h i j j h i g g g h h g g g h k i h j h j i ",
"k k l k m k k n m g g g g g g n k m k o k l l l ",
"p p q q r q q q q q g g g g q p q q q q q q q p ",
"s s t s p u t s t s g g g g s t t s v t t w p v ",
"x y z z z A z y x g g g g g g B y C z z B w x x ",
"D E D F D E D D g g g y G g g g D D y y D D y D ",
"H I H I I I G I g g J G J I g g H G I G I G I H ",
"K L M M L N O K L L M P K N P K M L K K L L K O ",
"Q Q R Q Q S Q Q S S S R Q Q S Q Q Q R Q S S S Q ",
"T U V T T W Q W X X X T W T T W U T T T W W X T ",
"Y Z Y Y Y Y Y Z Y ` Y Y Y Y Y Y Y Z Y Y Y ` Z Z ",
" ...+.@...+...#.@.@.$.+.@.+.+.%. .+. ...+. . .+.",
"$.$.$.&.&.%.*.$.$.=.%.-.&.*.$.$.=.$.$.*.-.-.;.&.",
">.>.=.=.=.=.=.>.=.=.=.=.=.>.>.=.=.,.=.=.>.>.=.=.",
"'.).).).!.!.).).~.).{.>.>.~.~.~.).).).{.!.~.).{.",
"].].].].].].].].].].].].].].].].].].].].].].].]."};
