/* XPM */
static char * close_active_xpm[] = {
"24 26 115 2",
"  	c #18334E",
". 	c #18344E",
"+ 	c #17344E",
"@ 	c #17344F",
"# 	c #18344F",
"$ 	c #17334E",
"% 	c #18334F",
"& 	c #18334D",
"* 	c #18324D",
"= 	c #17324E",
"- 	c #17334D",
"; 	c #17324C",
"> 	c #17334C",
", 	c #17324D",
"' 	c #17314B",
") 	c #16314B",
"! 	c #17324B",
"~ 	c #16324B",
"{ 	c #16314A",
"] 	c #17304A",
"^ 	c #16304A",
"/ 	c #17314A",
"( 	c #173049",
"_ 	c #163149",
": 	c #163048",
"< 	c #163049",
"[ 	c #153048",
"} 	c #162F49",
"| 	c #152F48",
"1 	c #152F47",
"2 	c #162F48",
"3 	c #153047",
"4 	c #162F47",
"5 	c #162E46",
"6 	c #152F46",
"7 	c #152E46",
"8 	c #152E47",
"9 	c #162F46",
"0 	c #152D45",
"a 	c #142E46",
"b 	c #152E45",
"c 	c #152D46",
"d 	c #142E45",
"e 	c #142D45",
"f 	c #142D46",
"g 	c #142D44",
"h 	c #152D44",
"i 	c #C0C0C0",
"j 	c #152C44",
"k 	c #142C43",
"l 	c #132C43",
"m 	c #142C44",
"n 	c #142D43",
"o 	c #132C42",
"p 	c #142B42",
"q 	c #132B42",
"r 	c #142C42",
"s 	c #132B41",
"t 	c #132B40",
"u 	c #142B41",
"v 	c #132A41",
"w 	c #132A40",
"x 	c #122A40",
"y 	c #132A3F",
"z 	c #122A3F",
"A 	c #13293F",
"B 	c #12293F",
"C 	c #122A3E",
"D 	c #13293E",
"E 	c #132A3E",
"F 	c #12293E",
"G 	c #12293D",
"H 	c #11283E",
"I 	c #12283E",
"J 	c #12283D",
"K 	c #11283C",
"L 	c #12283C",
"M 	c #12273C",
"N 	c #11283D",
"O 	c #11273C",
"P 	c #11283B",
"Q 	c #11273B",
"R 	c #12273B",
"S 	c #11273A",
"T 	c #10263A",
"U 	c #11263A",
"V 	c #11263B",
"W 	c #10273A",
"X 	c #102539",
"Y 	c #112539",
"Z 	c #112639",
"` 	c #102639",
" .	c #102538",
"..	c #102438",
"+.	c #102537",
"@.	c #112538",
"#.	c #102437",
"$.	c #102436",
"%.	c #0F2436",
"&.	c #0F2437",
"*.	c #102336",
"=.	c #0F2336",
"-.	c #0F2335",
";.	c #0F2435",
">.	c #0E2334",
",.	c #0F2234",
"'.	c #0F2334",
").	c #0F2235",
"!.	c #0E2235",
"~.	c #0E2234",
"{.	c #0E2233",
"].	c #0F2233",
"^.	c #0E2133",
"/.	c #0F2134",
"(.	c #2A3E52",
"    . + .   @ . # @ . . .   .   . . $ . . % . @ ",
"& & * & $ $ $ = & -   $ & - &   & $ $ - = -   - ",
"; > ; ; , ; ; ; ; ; > ; > , ; ; ; ; - ; ; > ; ; ",
"' ' ) ! ! ! ' ~ ) ) ! ! ! ! ! ~ ! ) ) ' ' ! ! ) ",
"{ { { ] ^ / { { { ] / ^ { ( _ { { ] / { / { { / ",
": < < < < < : [ } < : < < : < < : : < < : : < < ",
"| 1 [ 1 2 1 [ | 3 | 1 2 [ : | 1 1 | | 1 | 4 | 2 ",
"5 1 6 1 7 7 1 6 8 1 4 8 8 7 8 1 1 7 1 9 1 7 8 6 ",
"7 0 0 a b c c b 0 d d b 7 c e b a d b b 7 7 f 7 ",
"g h g g e g h h i i j g g g i i 0 h g g e e g e ",
"k l m k n k k l i i i k n i i i k n n k k k k l ",
"o p o p q r o o o i i i i i i r p q o p q o p q ",
"s t s u u s s v s s i i i i s v s s s s s s u s ",
"w x w w y x w w w w i i i i w w x x z w w w z y ",
"A B C A A A B D B i i i i i i z B y A B E A y B ",
"F F G H G I I I i i i I J i i i F G J G G F I I ",
"K L M N J L O L i i N J K J i i O L K J L K L L ",
"P Q O Q O Q O O Q Q O Q Q Q O Q Q O Q R Q R Q R ",
"S T U S U S U U T V S U U S S W U S S S W S U U ",
"X Y U Z X ` X ` X X Z Y Y Z X Z X Y X ` Z Y ` ` ",
" . . ... . . . . .+...+.+. . . . . . .@.@. . . .",
"#.#.#.$.#.#.#.+.%.#.+.&.#.#.$.&.+.%.&.&.+.#.+.%.",
"%.%.*.*.=.*.-.;.%.%.-.-.=.-.%.=.-.=.=.=.%.%.%.=.",
">.,.>.-.-.'.-.'.'.,.'.'.-.).-.-.-.'.-.-.,.!.).'.",
"~.{.].~.].{.,.^.].].~.].{.,./.].].{.{.{.{.].].~.",
"(.(.(.(.(.(.(.(.(.(.(.(.(.(.(.(.(.(.(.(.(.(.(.(."};
