/* XPM */
static char * close_inactive_xpm[] = {
"24 26 130 2",
"  	c #4E6176",
". 	c #4D6176",
"+ 	c #4E6276",
"@ 	c #4D6276",
"# 	c #4E6277",
"$ 	c #4C6075",
"% 	c #4C6074",
"& 	c #4D6075",
"* 	c #4C5F75",
"= 	c #4D6074",
"- 	c #4D5F74",
"; 	c #4D5F75",
"> 	c #4B5F73",
", 	c #4B5E73",
"' 	c #4B5E72",
") 	c #4C5E73",
"! 	c #4B5F72",
"~ 	c #4A5D71",
"{ 	c #4A5C71",
"] 	c #4A5D72",
"^ 	c #4B5D71",
"/ 	c #495C70",
"( 	c #495B6F",
"_ 	c #495C6F",
": 	c #495B70",
"< 	c #485C6F",
"[ 	c #485A6E",
"} 	c #475A6E",
"| 	c #485B6D",
"1 	c #485B6E",
"2 	c #485A6D",
"3 	c #47596C",
"4 	c #46596C",
"5 	c #47586C",
"6 	c #47586B",
"7 	c #47596B",
"8 	c #46586C",
"9 	c #46576A",
"0 	c #45576B",
"a 	c #45576A",
"b 	c #45586B",
"c 	c #46586A",
"d 	c #455669",
"e 	c #455668",
"f 	c #445668",
"g 	c #445669",
"h 	c #455569",
"i 	c #445569",
"j 	c #445568",
"k 	c #445467",
"l 	c #435467",
"m 	c #445567",
"n 	c #435566",
"o 	c #949AA0",
"p 	c #435567",
"q 	c #435466",
"r 	c #445466",
"s 	c #425365",
"t 	c #425265",
"u 	c #435365",
"v 	c #415163",
"w 	c #415164",
"x 	c #415263",
"y 	c #415264",
"z 	c #405062",
"A 	c #405061",
"B 	c #3F5061",
"C 	c #3F4F60",
"D 	c #3F4E60",
"E 	c #3E4E60",
"F 	c #3E4F60",
"G 	c #3E4D5E",
"H 	c #3E4E5E",
"I 	c #3D4D5E",
"J 	c #3E4E5F",
"K 	c #3E4D5F",
"L 	c #3C4C5D",
"M 	c #3C4C5C",
"N 	c #3D4C5D",
"O 	c #3D4C5C",
"P 	c #3C4B5C",
"Q 	c #3D4B5D",
"R 	c #3C4A5B",
"S 	c #3B4B5B",
"T 	c #3C4B5B",
"U 	c #3B4B5A",
"V 	c #3B4A5B",
"W 	c #3B4A5A",
"X 	c #3A4959",
"Y 	c #3A4859",
"Z 	c #3B4959",
"` 	c #3A495A",
" .	c #3B4859",
"..	c #394757",
"+.	c #394758",
"@.	c #394857",
"#.	c #3A4757",
"$.	c #3A4758",
"%.	c #394858",
"&.	c #384656",
"*.	c #384655",
"=.	c #374555",
"-.	c #384454",
";.	c #374554",
">.	c #384555",
",.	c #374455",
"'.	c #364352",
").	c #374353",
"!.	c #364453",
"~.	c #364452",
"{.	c #364353",
"].	c #374352",
"^.	c #354251",
"/.	c #354250",
"(.	c #344251",
"_.	c #334150",
":.	c #34414F",
"<.	c #33414F",
"[.	c #34404F",
"}.	c #33404F",
"|.	c #344150",
"1.	c #344050",
"2.	c #323F4D",
"3.	c #333F4D",
"4.	c #323F4E",
"5.	c #33404E",
"6.	c #333F4E",
"7.	c #32404E",
"8.	c #33404D",
"9.	c #4A5969",
"  . + .   . @ .   . @ + + . + . # +   . @ @     ",
"$ % & % % $ & * = % - % $ $ $ % = % % = ; % $ % ",
"> , ' ) , > , > , , > , , , , , ! , , , ) > , ) ",
"~ { ~ ~ ~ ~ ~ ~ ~ ~ ~ ~ ~ ~ ~ ~ ~ ~ ~ ] ^ ~ ~ ~ ",
"/ ( ( _ / _ ( _ ( : : ( _ : : ( : ( ( ( < ( _ _ ",
"[ [ [ [ } | } [ [ [ [ [ [ 1 2 [ } [ 2 } [ 2 } 2 ",
"3 3 3 4 3 3 5 6 5 5 3 5 5 4 7 4 4 8 3 8 7 8 3 3 ",
"9 9 0 a 0 9 9 9 b 9 b c a a a 0 9 a 9 a c b 9 9 ",
"d e f g e g g f h i g e f f g h f f d d d g j g ",
"k l m l m k l n o o l p q p o o p r l p l q r p ",
"s s s s s t s s o o o s s o o o s s s s u s t s ",
"v w v v w v v v v o o o o o o x y x y w v w x v ",
"z z A A z z z z z z o o o o B B z z z z z B A B ",
"C C D C E D C F D C o o o o D F C E C C E F F D ",
"G G H G H G G G G o o o o o o I H G J K G G G G ",
"L M N M O N M N o o o O P o o o Q M N P N P O L ",
"R S T S U V V V o o W V R T o o R S S T R V V V ",
"X X Y Z Y Z ` X X Z Z X Z X `  .Z X X X X X Z X ",
"..+.@...+.#.$.+.+.+...+.%...+.+.+.........@.%.%.",
"&.*.&.&.&.&.&.&.&.&.&.*.&.&.*.&.*.*.&.&.&.&.*.*.",
"=.=.=.-.;.;.;.;.=.=.=.=.;.=.>.;.=.;.=.=.,.;.;.;.",
"'.).!.~.!.!.'.!.{.!.].!.!.~.{.{.{.!.!.{.!.!.{.!.",
"^.^.^.^.^.^.^.^.^.^.^.^.^.^.^.^.^.^.^.^./.^.(.^.",
"_.:.<.:.[.}.:.:.:.|.[.:.:.[.|.[.|.:.:.<.:.1.[.1.",
"2.3.3.4.5.4.4.6.6.2.3.7.6.6.6.8.3.4.3.4.3.6.7.3.",
"9.9.9.9.9.9.9.9.9.9.9.9.9.9.9.9.9.9.9.9.9.9.9.9."};
