/* XPM */
static char * close_prelight_xpm[] = {
"24 26 109 2",
"  	c #18344E",
". 	c #18344F",
"+ 	c #18334F",
"@ 	c #18334E",
"# 	c #17344E",
"$ 	c #18334D",
"% 	c #17334D",
"& 	c #17324D",
"* 	c #17334E",
"= 	c #17334C",
"- 	c #17324C",
"; 	c #16314B",
"> 	c #17324B",
", 	c #16324B",
"' 	c #17314B",
") 	c #17314C",
"! 	c #17314A",
"~ 	c #16314A",
"{ 	c #16304A",
"] 	c #163149",
"^ 	c #163049",
"/ 	c #163048",
"( 	c #162F49",
"_ 	c #162F48",
": 	c #153049",
"< 	c #152F48",
"[ 	c #152F47",
"} 	c #153048",
"| 	c #162F47",
"1 	c #152E46",
"2 	c #152E47",
"3 	c #162E47",
"4 	c #152F46",
"5 	c #142E45",
"6 	c #142E46",
"7 	c #152D45",
"8 	c #142D45",
"9 	c #152E45",
"0 	c #152D46",
"a 	c #142D46",
"b 	c #152D44",
"c 	c #142D44",
"d 	c #536980",
"e 	c #142C43",
"f 	c #132D43",
"g 	c #142D43",
"h 	c #132B42",
"i 	c #142C42",
"j 	c #142B43",
"k 	c #142B42",
"l 	c #132C42",
"m 	c #132B43",
"n 	c #132B41",
"o 	c #142B41",
"p 	c #132A41",
"q 	c #132B40",
"r 	c #132A40",
"s 	c #132B3F",
"t 	c #132A3F",
"u 	c #122A40",
"v 	c #12293F",
"w 	c #12293E",
"x 	c #122A3F",
"y 	c #13293F",
"z 	c #12283E",
"A 	c #12293D",
"B 	c #12283D",
"C 	c #11283C",
"D 	c #12283C",
"E 	c #12273C",
"F 	c #11273D",
"G 	c #11273C",
"H 	c #11273B",
"I 	c #11283B",
"J 	c #12273B",
"K 	c #11263A",
"L 	c #11273A",
"M 	c #10263A",
"N 	c #11263B",
"O 	c #10263B",
"P 	c #112539",
"Q 	c #102539",
"R 	c #102639",
"S 	c #112639",
"T 	c #102538",
"U 	c #112538",
"V 	c #102438",
"W 	c #102437",
"X 	c #0F2437",
"Y 	c #0F2436",
"Z 	c #102536",
"` 	c #0F2336",
" .	c #0F2335",
"..	c #102436",
"+.	c #0F2435",
"@.	c #102336",
"#.	c #102435",
"$.	c #0F2334",
"%.	c #0F2234",
"&.	c #0F2235",
"*.	c #0E2335",
"=.	c #0E2334",
"-.	c #0E2134",
";.	c #0E2233",
">.	c #0F2233",
",.	c #0E2234",
"'.	c #0E2133",
").	c #0F2133",
"!.	c #2A3E52",
"  . .   + . . . . . @ . + . @ . . @ #   .   +   ",
"$ @ $ % % $ % % @ % @ % $ % % $ & * * $ & & % % ",
"= - - - & - - - - - % - - & - = - - - - % - - & ",
"; > , > ' ; > > ) > , , ' ; > , ; ' ; , ; > , , ",
"! ! ! ~ { ] ~ ~ { ^ ~ ! ~ ^ ~ ~ ] ! ~ ~ { { ! { ",
"^ / ( ^ _ ( ^ / / / ^ ^ / : ^ ^ ^ / ^ ^ ^ ^ : ^ ",
"< < [ _ < _ _ _ [ < } < _ [ _ < | < / | < _ _ / ",
"1 2 2 [ 3 | 1 1 4 [ [ 1 1 4 2 1 2 1 [ 1 2 4 1 2 ",
"5 6 7 8 9 0 7 9 5 9 1 1 5 1 9 5 1 7 5 9 9 9 a 5 ",
"b c b c b b 7 8 d d c 8 7 c d d 8 b 8 b c c c 8 ",
"e c e e f e e f d d d g g d d d e e e e g e e c ",
"h i j k k i k l l d d d d d d k h h k i i m k l ",
"n o n n p n n p n n d d d d n n n n n p n n p q ",
"r r r r r r r r s r d d d d r q t r r u u r r r ",
"v v v t w w v x v d d d d d d v y v v w x w v v ",
"z w w A z A z z d d d w A d d d A A z A B w z B ",
"C D B B C B B E d d B B D D d d F D B D G B D E ",
"G H I J G I H H G H G H G H I H H H G H H H I H ",
"K H L K H K K K L K K L K M K K L K K M K N O K ",
"P Q P R R S P Q P S P Q R P Q Q R S S S P R R R ",
"T T T T T T U V T T T T T T T V T T T T T T T T ",
"W X Y W W W W W W Y W Z Y W X X W W W W W W X W ",
"` Y `  . . ...+. .Y ` Y Y Y ` Y ` ..@.` Y ` #.Y ",
" . .$.%. .&.$.$.%.$.$.*. .$.&.=.&.$. .%.&.&.$.&.",
"-.;.%.>.>.;.,.>.,.;.;.;.'.,.;.'.).;.>.>.;.>.%.;.",
"!.!.!.!.!.!.!.!.!.!.!.!.!.!.!.!.!.!.!.!.!.!.!.!."};
