/* XPM */
static char * hide_pressed_xpm[] = {
"24 26 120 2",
"  	c #20476C",
". 	c #20466C",
"+ 	c #20476D",
"@ 	c #1F466D",
"# 	c #20466D",
"$ 	c #1F476C",
"% 	c #1F476B",
"& 	c #1F466B",
"* 	c #1F466C",
"= 	c #20466B",
"- 	c #1F456A",
"; 	c #20456B",
"> 	c #1F456B",
", 	c #1F466A",
"' 	c #1F4569",
") 	c #1F4469",
"! 	c #1E446A",
"~ 	c #1E456A",
"{ 	c #1F446A",
"] 	c #1F4468",
"^ 	c #1E4568",
"/ 	c #1E4469",
"( 	c #1E4468",
"_ 	c #1F4568",
": 	c #1E4569",
"< 	c #1E4367",
"[ 	c #1F4467",
"} 	c #1E4467",
"| 	c #1E4368",
"1 	c #1F4367",
"2 	c #1F4368",
"3 	c #1E4366",
"4 	c #1E4265",
"5 	c #1D4265",
"6 	c #1E4365",
"7 	c #1E4266",
"8 	c #1D4266",
"9 	c #1D4365",
"0 	c #1D4366",
"a 	c #1E4264",
"b 	c #1D4164",
"c 	c #1E4164",
"d 	c #1D4165",
"e 	c #1D4264",
"f 	c #1D4163",
"g 	c #1E4163",
"h 	c #1D4263",
"i 	c #1D4162",
"j 	c #1D4062",
"k 	c #1C4163",
"l 	c #1C4063",
"m 	c #1C4162",
"n 	c #1D4063",
"o 	c #1C4062",
"p 	c #1C4061",
"q 	c #1D4061",
"r 	c #1C3F61",
"s 	c #1D3F62",
"t 	c #1D3F60",
"u 	c #1C4060",
"v 	c #1C3F60",
"w 	c #1D3F61",
"x 	c #949AA0",
"y 	c #1C3F5F",
"z 	c #1B3F60",
"A 	c #1C3E60",
"B 	c #1B3E5F",
"C 	c #1C3E5F",
"D 	c #1C3F5E",
"E 	c #1B3E5E",
"F 	c #1C3E5E",
"G 	c #1B3F5E",
"H 	c #1B3F5F",
"I 	c #1B3D5E",
"J 	c #1B3E5D",
"K 	c #1C3D5E",
"L 	c #1C3E5D",
"M 	c #1B3D5D",
"N 	c #1C3D5D",
"O 	c #1B3D5C",
"P 	c #1B3C5D",
"Q 	c #1A3D5D",
"R 	c #1B3C5B",
"S 	c #1A3C5B",
"T 	c #1B3C5C",
"U 	c #1B3D5B",
"V 	c #1A3D5B",
"W 	c #1A3C5C",
"X 	c #1A3D5C",
"Y 	c #1A3B5A",
"Z 	c #1A3B5B",
"` 	c #1B3C5A",
" .	c #1A3C5A",
"..	c #1B3B5B",
"+.	c #1B3B5A",
"@.	c #1A3B59",
"#.	c #1A3A59",
"$.	c #1A3A58",
"%.	c #193B58",
"&.	c #1A3B58",
"*.	c #193B59",
"=.	c #193A58",
"-.	c #193A57",
";.	c #1A3957",
">.	c #193957",
",.	c #1A3A57",
"'.	c #193958",
").	c #193A56",
"!.	c #193956",
"~.	c #1A3956",
"{.	c #193855",
"].	c #193856",
"^.	c #183855",
"/.	c #193955",
"(.	c #183955",
"_.	c #193854",
":.	c #183854",
"<.	c #183754",
"[.	c #193754",
"}.	c #2A3E52",
"  .   + + +     + .   @ + + # .   + # $   +     ",
". % . . & . * = = = = * = * = = * * = . * & = & ",
"- & - - ; - > & > - - = > - - ; , > = - > > , & ",
"- ' ' ' ) - ! - ' - ~ ' ' { ) ' ' ' - ' - - ) ! ",
"] ' ^ / ] ) ) ] ( ( ] ( / ) _ ' ) ) / ] ( ^ ( : ",
"< [ } ( ( | ( [ } 1 } ( } } } } | ( < < 2 ( } 1 ",
"3 < 3 3 3 3 3 3 < < 3 < < 3 < 3 < < 3 3 < < < < ",
"3 4 5 6 5 4 3 6 4 7 4 4 7 7 3 8 6 9 4 5 5 6 0 7 ",
"5 a 5 b c 5 c 5 5 4 5 5 a b d e 5 5 d 5 a a 5 5 ",
"f c b b b f f c f b f b f f f f g h b f f f f f ",
"i j k f l m i m l j i j i i j m n i n o k k f m ",
"p o q r q r q o p q p q s q q j q p q p r o o q ",
"t u v w v u v p x x x x x x x x w v p w u v r r ",
"y v v v y y v v x x x x x x x x y y z v v v v A ",
"B C D D E E E F F F G B H F B C F C E B E B C y ",
"E E I E J K L I E L I E I L E M K E M M E N L E ",
"M O M M M M O M O M P O M O O M M M O O P Q M O ",
"R S T T T O T T R T U T T V T R W W T X S R R O ",
"Y Z S Z R Z S Z Z ` R S  .R ..` R S  .+. .S S ..",
"Y @.Y Y @.Y Y @. .Y Y Y @.@.Y Y @. .@.Y Y Y @.@.",
"#.$.%.$.#.#.@.$.#.&.$.&.&.%.*.@.*.$.$.#.$.&.@.#.",
"=.-.;.$.=.>.-.-.,.-.=.>.=.=.$.-.'.=.=.$.=.>.=.=.",
").>.).!.).>.!.).>.>.!.).>.>.>.>.>.>.>.~.,.!.!.!.",
"{.].{.{.!.{.{.^./.].!.(.!.{./.{.].!.!.!./.{.]./.",
"_.:.<.^.^.:._._.{.^.{.^._.:.[.:.{.^._.{.:.{._._.",
"}.}.}.}.}.}.}.}.}.}.}.}.}.}.}.}.}.}.}.}.}.}.}.}."};
