/* XPM */
static char * hide_prelight_xpm[] = {
"24 26 109 2",
"  	c #18344E",
". 	c #18344F",
"+ 	c #18334F",
"@ 	c #17334E",
"# 	c #18334E",
"$ 	c #17344E",
"% 	c #17334D",
"& 	c #17324E",
"* 	c #18334D",
"= 	c #17324D",
"- 	c #17324C",
"; 	c #17334C",
"> 	c #16314B",
", 	c #16324B",
"' 	c #17314B",
") 	c #17314C",
"! 	c #17324B",
"~ 	c #16314A",
"{ 	c #16304A",
"] 	c #17304A",
"^ 	c #17314A",
"/ 	c #163049",
"( 	c #153049",
"_ 	c #162F49",
": 	c #163048",
"< 	c #152F48",
"[ 	c #162F48",
"} 	c #152F47",
"| 	c #163047",
"1 	c #162F47",
"2 	c #152E46",
"3 	c #152E47",
"4 	c #152F46",
"5 	c #162F46",
"6 	c #152E45",
"7 	c #152D46",
"8 	c #152D45",
"9 	c #142E45",
"0 	c #142E46",
"a 	c #142D45",
"b 	c #142D44",
"c 	c #152D44",
"d 	c #142C44",
"e 	c #142D43",
"f 	c #142C43",
"g 	c #132D44",
"h 	c #142B42",
"i 	c #132B42",
"j 	c #142C42",
"k 	c #132C43",
"l 	c #132C42",
"m 	c #132B41",
"n 	c #132B40",
"o 	c #536980",
"p 	c #142B41",
"q 	c #132A40",
"r 	c #122A40",
"s 	c #132A3F",
"t 	c #12293E",
"u 	c #13293F",
"v 	c #132A3E",
"w 	c #13293E",
"x 	c #122A3E",
"y 	c #12293F",
"z 	c #122A3F",
"A 	c #12283E",
"B 	c #12283D",
"C 	c #12293D",
"D 	c #11283D",
"E 	c #12283C",
"F 	c #11283C",
"G 	c #12273D",
"H 	c #11273C",
"I 	c #11273B",
"J 	c #11283B",
"K 	c #12273B",
"L 	c #12273C",
"M 	c #10263A",
"N 	c #11273A",
"O 	c #11263A",
"P 	c #11263B",
"Q 	c #10273A",
"R 	c #112539",
"S 	c #102639",
"T 	c #10253A",
"U 	c #112639",
"V 	c #102539",
"W 	c #11253A",
"X 	c #102538",
"Y 	c #112538",
"Z 	c #102438",
"` 	c #102537",
" .	c #102437",
"..	c #0F2437",
"+.	c #0F2537",
"@.	c #102436",
"#.	c #0F2436",
"$.	c #102435",
"%.	c #0F2335",
"&.	c #102336",
"*.	c #0F2336",
"=.	c #0F2334",
"-.	c #0F2234",
";.	c #0F2235",
">.	c #0E2233",
",.	c #0E2234",
"'.	c #0F2233",
").	c #0E2333",
"!.	c #2A3E52",
"  . + + @ . # .   +   +   + #   . .   @ $ #   $ ",
"@ % # & % # # @ @ % % % * % & * # % % * % & % * ",
"= % - = - - - = - - - ; - - - = - - - - - - - = ",
"> > > > , ' , ' > , ) ' ! ! , , ' ' > ' ! ' ! ! ",
"~ ~ ~ ~ ~ ~ ~ { ~ ~ ] ~ ~ ^ ~ ~ ^ { ~ ~ { { ~ { ",
"/ ( / / / / / / _ : ( ( / / : _ ( _ ( / / : ( : ",
"< < < [ } | 1 1 [ [ } < [ } } 1 < : } 1 < [ [ < ",
"2 } 2 1 } } } 2 3 } } 4 3 3 3 } 3 4 } 2 5 3 3 3 ",
"6 6 6 2 7 8 9 9 2 6 0 a a 8 2 8 9 9 8 6 8 6 2 6 ",
"a b b b b a b b a a c a 8 d c c b b b a b b 8 b ",
"e f f f e g d f d e e b f d f f f f f f e e f e ",
"h i i i j i j j h h k l j i i h l h h i l l j i ",
"m n m n m m m m o o o o o o o o p m m m m m m m ",
"q r q r q s q s o o o o o o o o r q q r q n s q ",
"t t u s v w x y y y y u z z t s y z z y u u s w ",
"A B B A t A t C A t B C C t t C C A B t t B C C ",
"D E B E B E F E G E H D D B F B E E E H D G H D ",
"I I J I I K I L K I I H L I I I I H K I J H J I ",
"M I N O P O O N N N O Q O N Q I M N O N O O P O ",
"M R M S S T S U S U R S R T R S S U V W M R S R ",
"X Y X X V X X X X Y X X R X X R X X Y X X X X X ",
"Z `  . .Z Z  .` ` ` .. ... ...` +.`  ... .` ..` ",
"@.#.#.#.#.$.%.&.#.@.#.@.&.@.*.*.*.#.@.&.&.#.@.*.",
"%.=.%.-.;.%.%.%.=.;.%.%.%.%.%.%.%.;.%.%.;.%.%.=.",
">.-.,.'.'.-.>.,.'.,.>.-.>.'.>.'.-.'.,.>.,.,.).>.",
"!.!.!.!.!.!.!.!.!.!.!.!.!.!.!.!.!.!.!.!.!.!.!.!."};
