/* XPM */
static char * maximize_toggled_prelight_xpm[] = {
"24 26 112 2",
"  	c #17344E",
". 	c #18334E",
"+ 	c #18344E",
"@ 	c #18344D",
"# 	c #18334D",
"$ 	c #17344D",
"% 	c #17334D",
"& 	c #18334C",
"* 	c #17334C",
"= 	c #18324C",
"- 	c #17324C",
"; 	c #17324B",
"> 	c #17334B",
", 	c #18334B",
"' 	c #17324A",
") 	c #16314A",
"! 	c #17314B",
"~ 	c #16324B",
"{ 	c #17314A",
"] 	c #16314B",
"^ 	c #173149",
"/ 	c #163149",
"( 	c #163049",
"_ 	c #173049",
": 	c #163048",
"< 	c #152F47",
"[ 	c #163047",
"} 	c #153047",
"| 	c #162F47",
"1 	c #162F48",
"2 	c #152F46",
"3 	c #162F46",
"4 	c #162E47",
"5 	c #162E46",
"6 	c #152E45",
"7 	c #152E46",
"8 	c #152F45",
"9 	c #152E44",
"0 	c #142D45",
"a 	c #152D44",
"b 	c #142D44",
"c 	c #152D45",
"d 	c #536980",
"e 	c #152D43",
"f 	c #142D43",
"g 	c #142C43",
"h 	c #152C44",
"i 	c #142C44",
"j 	c #152C43",
"k 	c #142C42",
"l 	c #132C43",
"m 	c #142B41",
"n 	c #142C41",
"o 	c #142B42",
"p 	c #132B42",
"q 	c #132B41",
"r 	c #142A41",
"s 	c #132B40",
"t 	c #142A40",
"u 	c #142B40",
"v 	c #132A40",
"w 	c #132A3F",
"x 	c #122A3E",
"y 	c #12293F",
"z 	c #13293F",
"A 	c #13293E",
"B 	c #122A3F",
"C 	c #132A3E",
"D 	c #12293D",
"E 	c #13283E",
"F 	c #12293E",
"G 	c #12283E",
"H 	c #12283D",
"I 	c #12283C",
"J 	c #12273C",
"K 	c #12273B",
"L 	c #11273C",
"M 	c #12283B",
"N 	c #11283C",
"O 	c #11283B",
"P 	c #12273A",
"Q 	c #11273A",
"R 	c #11263B",
"S 	c #11263A",
"T 	c #11273B",
"U 	c #12263B",
"V 	c #12263A",
"W 	c #112639",
"X 	c #112539",
"Y 	c #11253A",
"Z 	c #102639",
"` 	c #10253A",
" .	c #112538",
"..	c #102539",
"+.	c #102538",
"@.	c #112638",
"#.	c #102438",
"$.	c #112438",
"%.	c #102537",
"&.	c #102437",
"*.	c #102436",
"=.	c #102337",
"-.	c #102336",
";.	c #0F2337",
">.	c #0F2436",
",.	c #0F2437",
"'.	c #0F2336",
").	c #0F2335",
"!.	c #102335",
"~.	c #102435",
"{.	c #0F2435",
"].	c #2A3E52",
"  . + @ @ @ + @ . @ # $ + + . @ @ + + #   % + + ",
"% # & # & & * % * % * & & * = & & & * = % * * % ",
"- ; ; > > - ; - > ; ; ; - - - ; ; - ; - - , - - ",
"' ) ) ! ' ; ' ; ~ ) ' { ! ) ! ' ' ' ! ] { ; ' ' ",
"^ { / ^ / / / { ^ ( / ^ / { _ ^ / / / ) ^ / ) { ",
"( ( ( ( : : : _ ( ( : : : : ( : : ( ( ( : : _ : ",
"< < < [ [ < } [ | 1 : : [ : [ [ < : 1 [ [ | | [ ",
"2 < | 2 3 < < 4 2 2 < 2 | 2 5 < | 5 4 < < < 3 2 ",
"6 7 6 7 7 6 7 6 6 7 6 8 6 7 6 7 7 8 6 6 7 7 6 7 ",
"9 9 0 a b 9 c c d d d d d d d d b 9 6 6 a 9 0 b ",
"e f g h e i f a d d d d d d d d h a i f j f a a ",
"g g g g k k g k d d k k k k d d l k k k k g g k ",
"m n o o k m n o d d o k p p d d m o o k k q m q ",
"q q r m s q q q d d m t q u d d q m u s r u m q ",
"v v v v v v v w d d v w w v d d w w v v w v v v ",
"x y y z z y z A d d d d d d d d A z z B A C z z ",
"D E A E F G F H d d d d d d d d G D H D E F A E ",
"I H H I I I H I H I H H H I H I H J I I H I H H ",
"I K J L J K M I N I I J L K I J J I O K M L K M ",
"P Q R Q K S R T U S Q U U S S R T Q Q V S K K P ",
"S S W S W X Y W S S S W S S W Z S ` W S S W Y Z ",
" ... . .+...X X  . .+. . ...X +. . .@...X ......",
"+.#.+.#.$.+.+.%.&.+.+.#.&.$.+.+.$.%.#.&.&.%.&.&.",
"*.&.*.=.-.;.*.>.*.*.,.&.>.'.&.>.-.*.&.*.*.'.&.&.",
"-.).*.).-.).).!.'.).-.-.'.'.'.).*.~.'.-.-.-.{.).",
"].].].].].].].].].].].].].].].].].].].].].].].]."};
