/* XPM */
static char * maximize_pressed_xpm[] = {
"24 26 97 2",
"  	c #21466C",
". 	c #21476C",
"+ 	c #20476B",
"@ 	c #20476C",
"# 	c #21466B",
"$ 	c #20466C",
"% 	c #21476B",
"& 	c #20466A",
"* 	c #21466A",
"= 	c #20466B",
"- 	c #20456A",
"; 	c #204569",
"> 	c #204669",
", 	c #204468",
"' 	c #1F4569",
") 	c #1F4469",
"! 	c #204469",
"~ 	c #1F4568",
"{ 	c #1F4468",
"] 	c #1F4467",
"^ 	c #1F4366",
"/ 	c #1F4466",
"( 	c #1F4367",
"_ 	c #1E4367",
": 	c #1F4365",
"< 	c #1F4266",
"[ 	c #1E4366",
"} 	c #1E4266",
"| 	c #1E4365",
"1 	c #1F4265",
"2 	c #1E4265",
"3 	c #1E4264",
"4 	c #1E4164",
"5 	c #1E4163",
"6 	c #1D4164",
"7 	c #1E4263",
"8 	c #1D4264",
"9 	c #1D4163",
"0 	c #1E4162",
"a 	c #1E4063",
"b 	c #949AA0",
"c 	c #1D4063",
"d 	c #1C4062",
"e 	c #1D4062",
"f 	c #1D4061",
"g 	c #1C3F61",
"h 	c #1C4061",
"i 	c #1D3F61",
"j 	c #1C3F60",
"k 	c #1C3E60",
"l 	c #1C3F5F",
"m 	c #1D3F60",
"n 	c #1C3E5F",
"o 	c #1B3E5F",
"p 	c #1C3E5E",
"q 	c #1C3F5E",
"r 	c #1B3E5E",
"s 	c #1B3D5E",
"t 	c #1C3D5E",
"u 	c #1B3E5D",
"v 	c #1C3D5D",
"w 	c #1B3D5D",
"x 	c #1B3C5D",
"y 	c #1A3C5C",
"z 	c #1B3C5C",
"A 	c #1A3D5C",
"B 	c #1A3C5B",
"C 	c #1A3B5B",
"D 	c #1B3C5B",
"E 	c #1B3B5B",
"F 	c #1A3A5A",
"G 	c #193B5A",
"H 	c #1A3B5A",
"I 	c #1A3A59",
"J 	c #193A59",
"K 	c #193B59",
"L 	c #193A5A",
"M 	c #193A58",
"N 	c #193959",
"O 	c #193958",
"P 	c #1A3A58",
"Q 	c #193957",
"R 	c #183957",
"S 	c #183958",
"T 	c #183856",
"U 	c #183956",
"V 	c #193856",
"W 	c #193857",
"X 	c #183857",
"Y 	c #183756",
"Z 	c #183855",
"` 	c #183755",
" .	c #173855",
"..	c #173754",
"+.	c #183754",
"@.	c #173755",
"#.	c #2A3E52",
"  . + . +   @   # #   # . $ # . . % . @ # .   % ",
"# & # * * = # & = & = & * = * # & & = # = & = & ",
"- & & ; ; & - ; ; - > ; - ; - - ; ; ; - > - ; ; ",
"; , ' , ) ! ; ) ' ) , ' ! ! ; ~ , ' ~ ~ ; ' ; ) ",
"{ ] ] , { , { ] { , { ] ] { , , { { { { { ~ ] ] ",
"^ / ( ^ ( ] ] ( ( ^ _ ^ _ ] ( ^ ( / ( / ^ ^ ( ( ",
"^ : < [ } [ [ ^ < } | < [ ^ ^ 1 ^ [ [ } } [ : ^ ",
"1 2 2 2 2 2 3 3 2 3 2 3 2 2 3 | 2 2 : 2 3 3 2 1 ",
"3 4 4 4 4 5 3 6 5 7 3 4 6 4 7 4 7 5 8 8 7 8 7 4 ",
"9 5 5 9 0 a 9 5 b b b b b b b b 9 c 5 9 0 a c c ",
"d e e e e e e f b b b b b b b b e e e e e e e e ",
"g f g h i i i i b b g g f i b b f j g i f i i i ",
"k j j l j m j n b b k k l k b b k j k j j j j l ",
"o p q r n n n n b b o n n o b b n n n n l p p n ",
"p s t r s t t s b b u r v r b b t s r s r r s p ",
"w w w w w w x w b b b b b b b b w w w w w x x w ",
"y z y z z z y y b b b b b b b b y y y y z z z A ",
"B C B C C C C C D C C B C C B B B B B E C B C E ",
"F G H H H F H G H H F F H G H H H H G F H H G G ",
"I F I J J K J J I I I F J J I I J I J I J I I L ",
"M I M N M N O N O M O J M M N O J N M P O O O M ",
"Q Q O R Q R O O Q Q Q Q Q O R O O S S R R R O Q ",
"T Q U V R U W X Q U X U T R T T X W V T X T W V ",
"Y Z T T Z ` Y  .` Z Z T ` Z T T Y T Y T Z Y ` ` ",
"` ..+...@.@.` ....+.+.+.+.+.` ....@.+.` ..@.` +.",
"#.#.#.#.#.#.#.#.#.#.#.#.#.#.#.#.#.#.#.#.#.#.#.#."};
