/* XPM */
static char * maximize_inactive_xpm[] = {
"24 26 122 2",
"  	c #4E6275",
". 	c #4E6176",
"+ 	c #4D6175",
"@ 	c #4D6275",
"# 	c #4E6175",
"$ 	c #4E6276",
"% 	c #4C6073",
"& 	c #4D6074",
"* 	c #4C6074",
"= 	c #4D6073",
"- 	c #4C5F74",
"; 	c #4C5F72",
"> 	c #4B5E72",
", 	c #4C5E73",
"' 	c #4B5F72",
") 	c #4B5E73",
"! 	c #4B5F73",
"~ 	c #4A5D70",
"{ 	c #4A5D71",
"] 	c #4B5E71",
"^ 	c #4B5D70",
"/ 	c #4B5D71",
"( 	c #4A5E71",
"_ 	c #4A5E70",
": 	c #4B5E70",
"< 	c #495C6F",
"[ 	c #4A5C6F",
"} 	c #4A5B6F",
"| 	c #485B6D",
"1 	c #485B6E",
"2 	c #485A6E",
"3 	c #495A6D",
"4 	c #485A6D",
"5 	c #47596C",
"6 	c #485A6C",
"7 	c #48596C",
"8 	c #475A6C",
"9 	c #47596B",
"0 	c #47576A",
"a 	c #46586A",
"b 	c #46586B",
"c 	c #46576B",
"d 	c #46576A",
"e 	c #47586A",
"f 	c #465669",
"g 	c #455669",
"h 	c #455769",
"i 	c #455668",
"j 	c #455768",
"k 	c #465769",
"l 	c #445567",
"m 	c #445568",
"n 	c #949AA0",
"o 	c #435466",
"p 	c #435465",
"q 	c #435366",
"r 	c #425264",
"s 	c #425364",
"t 	c #425365",
"u 	c #415264",
"v 	c #415364",
"w 	c #425265",
"x 	c #415162",
"y 	c #415163",
"z 	c #405061",
"A 	c #405062",
"B 	c #404F61",
"C 	c #415062",
"D 	c #3F4E60",
"E 	c #3F4F5F",
"F 	c #3F4F60",
"G 	c #3F4E5F",
"H 	c #3E4E5E",
"I 	c #3E4D5E",
"J 	c #3E4D5F",
"K 	c #3E4E5F",
"L 	c #3D4C5D",
"M 	c #3D4C5C",
"N 	c #3C4B5B",
"O 	c #3B4A5B",
"P 	c #3C4A5B",
"Q 	c #3B4B5B",
"R 	c #3C4A5C",
"S 	c #3C4B5C",
"T 	c #3B4B5C",
"U 	c #3B4A59",
"V 	c #3A495A",
"W 	c #3B495A",
"X 	c #3A4959",
"Y 	c #3B4A5A",
"Z 	c #3B4959",
"` 	c #3A4858",
" .	c #3A4758",
"..	c #3A4859",
"+.	c #394858",
"@.	c #384757",
"#.	c #394657",
"$.	c #384656",
"%.	c #394756",
"&.	c #394757",
"*.	c #384756",
"=.	c #384657",
"-.	c #394656",
";.	c #384555",
">.	c #374555",
",.	c #384655",
"'.	c #374454",
").	c #364354",
"!.	c #374453",
"~.	c #364454",
"{.	c #374354",
"].	c #364453",
"^.	c #354352",
"/.	c #364252",
"(.	c #354252",
"_.	c #364352",
":.	c #364351",
"<.	c #344151",
"[.	c #344150",
"}.	c #354151",
"|.	c #354150",
"1.	c #4A5969",
"  . . + @   # # + # @ # # .   # $ + + # # + + . ",
"% & & * % & % & & = & = - * & * * * = & * % % % ",
"; > > > ; ; , ' ' ' ) ' ! ' ' ' > ' > ; ' ) ' > ",
"~ { { ~ ] { ^ ~ { / ~ ( { ( / / _ / ] ~ ~ : / ~ ",
"< < < < < < [ [ < < < < < } [ < < [ [ [ [ [ < [ ",
"| 1 2 1 2 | 2 2 | 3 1 | 2 | 1 4 1 4 | 4 | 1 4 1 ",
"5 5 6 7 8 7 5 7 5 5 5 8 5 5 5 5 5 7 9 8 5 5 5 9 ",
"0 a b a b a a c a b a c 0 d a e a a a a b b d a ",
"f g g g h h h g i i g i g j k g h h i g g i k g ",
"l m l l l m l m n n n n n n n n l l l l l l l l ",
"o o o o p o o p n n n n n n n n q o o o o o p q ",
"r r r r r s s t n n r u v t n n u w s u s r r r ",
"x y x x x y x y n n x y y x n n x x x x y x y y ",
"z z z z z A A z n n z z A z n n z A z B z A z C ",
"D D E F F G D G n n F F G F n n D D F G F D F F ",
"H I J I J J K K n n n n n n n n K J J I I H I I ",
"L L L L L L L L n n n n n n n n L L L L L L L M ",
"N N O N N P Q R N P O Q S N P N N S N Q S T P N ",
"U V W W V U X W W Y Y Y W W W Z Z Y W Z W W W Z ",
"` ` `  .` ` ` ` ..` ` +.+.` ` ` `  .` ` `  .` ..",
"@.#.$.%.#.#.#.&.$.*.@.=.@.-.-.-.%.=.#.#.&.-.#.%.",
";.>.;.;.>.;.;.>.;.,.;.;.;.;.>.>.;.>.>.>.;.;.>.;.",
"'.).!.!.~.~.!.'.{.{.'.].!.!.].!.!.'.!.~.'.].~.!.",
"^./.^.^.(.(.(.(.(._././././._.(._._._.:././._.(.",
"<.[.}.|.<.}.<.}.<.|.[.|.<.}.|.<.[.[.[.|.[.<.}.|.",
"1.1.1.1.1.1.1.1.1.1.1.1.1.1.1.1.1.1.1.1.1.1.1.1."};
