/* XPM */
static char * shade_toggled_pressed_xpm[] = {
"24 26 94 2",
"  	c #20476C",
". 	c #20476B",
"+ 	c #20466B",
"@ 	c #1F476B",
"# 	c #20466C",
"$ 	c #1F466C",
"% 	c #1F466B",
"& 	c #1F466A",
"* 	c #1F476A",
"= 	c #20466A",
"- 	c #1F4669",
"; 	c #1F456A",
"> 	c #20456A",
", 	c #1F4569",
"' 	c #1F4469",
") 	c #1F4568",
"! 	c #1F4468",
"~ 	c #1E4468",
"{ 	c #1E4467",
"] 	c #1F4567",
"^ 	c #1F4467",
"/ 	c #1E4366",
"( 	c #1F4367",
"_ 	c #1E4466",
": 	c #1E4367",
"< 	c #1F4366",
"[ 	c #1E4365",
"} 	c #1F4466",
"| 	c #1E4265",
"1 	c #1D4365",
"2 	c #1E4264",
"3 	c #1D4264",
"4 	c #1D4265",
"5 	c #1D4263",
"6 	c #1D4163",
"7 	c #1D4164",
"8 	c #1E4163",
"9 	c #1E4263",
"0 	c #949AA0",
"a 	c #1D4062",
"b 	c #1D4162",
"c 	c #1D4161",
"d 	c #1D4061",
"e 	c #1C4061",
"f 	c #1C4062",
"g 	c #1D4060",
"h 	c #1D3F60",
"i 	c #1D3F61",
"j 	c #1C4060",
"k 	c #1C3F60",
"l 	c #1C3F5F",
"m 	c #1D3F5F",
"n 	c #1C405F",
"o 	c #1C3F5E",
"p 	c #1C3E5E",
"q 	c #1C3E5F",
"r 	c #1C3E5D",
"s 	c #1B3E5D",
"t 	c #1C3E5C",
"u 	c #1C3D5D",
"v 	c #1B3E5C",
"w 	c #1B3D5D",
"x 	c #1B3D5C",
"y 	c #1C3D5C",
"z 	c #1C3D5B",
"A 	c #1B3D5B",
"B 	c #1B3C5B",
"C 	c #1B3C5A",
"D 	c #1A3C59",
"E 	c #1A3B5A",
"F 	c #1A3C5A",
"G 	c #1B3B5A",
"H 	c #1B3C59",
"I 	c #1B3B59",
"J 	c #1A3B59",
"K 	c #1B3A59",
"L 	c #1A3A58",
"M 	c #1A3B58",
"N 	c #1B3A58",
"O 	c #1B3B58",
"P 	c #1A3A59",
"Q 	c #1A3A57",
"R 	c #193A58",
"S 	c #1A3956",
"T 	c #193A56",
"U 	c #1A3A56",
"V 	c #1A3957",
"W 	c #193957",
"X 	c #193956",
"Y 	c #1A3856",
"Z 	c #193955",
"` 	c #1A3955",
" .	c #193855",
"..	c #2A3E52",
"  . + . . . . +   @ . .     . #   $ . $   . %   ",
"+ % & + * + + = + + + + & % % = + % = * & & & . ",
"- ; & ; > & , = & & & ; ; , & & = = ; = & = - & ",
", , , ' ) , , , , , , , , ' , , , , , ) , , , , ",
") ! ! ) ! ~ ! ! { ! ) ] ) ! ! ^ ! ) ! ) ) ! ) ) ",
"/ ( _ { ^ ( : { { _ { { ^ { ( { ^ ^ { : { { ^ { ",
"/ / < / [ / / < / / / / / / / / _ / < } / / / / ",
"[ | [ [ | | 1 [ [ [ | [ | [ [ | [ [ [ | [ | | [ ",
"2 2 2 2 2 2 2 2 3 | 2 4 2 2 3 2 3 3 | 2 4 3 | 2 ",
"5 6 5 7 2 6 8 9 8 8 6 0 0 5 8 6 6 3 6 5 6 5 6 6 ",
"a b b b 6 b 8 a 6 b b 0 0 b a b b b a b 6 b b b ",
"c d d d c d c d b c c 0 0 e f c c d a a b d d c ",
"g h i d d d j 0 0 0 e 0 0 j 0 0 0 d g g i j k d ",
"k k l l m h l m 0 0 0 0 0 0 0 0 h m m k m n l h ",
"o p o o o q o l l 0 0 0 0 0 0 l o o p o o o o l ",
"p r r p p p p s r r 0 0 0 0 r r r p r r p p r p ",
"t t s u t v w s r x w 0 0 y u u u y r w w s r v ",
"z x x x y y x A y A x x A y A A x B z y x x y x ",
"A A C A B C C B B C B B B C B B B C C B A B B C ",
"D E F G F C C C F E F H G G F H G F C C I F C C ",
"I J D I H J E J J G E I J I H E G D J J J I H J ",
"K L M J N J M M M M M O O L N P M M L O L N L L ",
"Q Q Q Q Q Q Q Q L Q R L L Q Q Q L L Q Q Q Q Q Q ",
"S T U V U V U S U U W T U S U U S U U S V W U X ",
"Y Z X ` Z ` S Z ` Z ` ` ` ` X Z X S S Z  .`  .` ",
"................................................"};
