/* XPM */
static char * shade_toggled_prelight_xpm[] = {
"24 26 108 2",
"  	c #17334D",
". 	c #16344D",
"+ 	c #17344D",
"@ 	c #17334E",
"# 	c #16334D",
"$ 	c #16344E",
"% 	c #17344E",
"& 	c #17334C",
"* 	c #16334C",
"= 	c #16324B",
"- 	c #17324B",
"; 	c #17334B",
"> 	c #16324C",
", 	c #17324C",
"' 	c #16334B",
") 	c #16314B",
"! 	c #16324A",
"~ 	c #15324A",
"{ 	c #15314B",
"] 	c #16314A",
"^ 	c #15324B",
"/ 	c #163149",
"( 	c #153149",
"_ 	c #15314A",
": 	c #163049",
"< 	c #153049",
"[ 	c #153048",
"} 	c #163048",
"| 	c #153148",
"1 	c #152F48",
"2 	c #152F47",
"3 	c #153047",
"4 	c #152F46",
"5 	c #152E46",
"6 	c #142E46",
"7 	c #142F47",
"8 	c #142E47",
"9 	c #152E47",
"0 	c #152E45",
"a 	c #142E45",
"b 	c #142D44",
"c 	c #142E44",
"d 	c #142D45",
"e 	c #536980",
"f 	c #152E44",
"g 	c #142D43",
"h 	c #132C43",
"i 	c #142C44",
"j 	c #142C43",
"k 	c #132D43",
"l 	c #142C42",
"m 	c #132C42",
"n 	c #142B42",
"o 	c #132B41",
"p 	c #132C41",
"q 	c #142B41",
"r 	c #132B42",
"s 	c #122A40",
"t 	c #132A40",
"u 	c #132B40",
"v 	c #132A41",
"w 	c #122B41",
"x 	c #132A3F",
"y 	c #122A3F",
"z 	c #12293F",
"A 	c #13293E",
"B 	c #12293E",
"C 	c #13293F",
"D 	c #122A3E",
"E 	c #12293D",
"F 	c #12283D",
"G 	c #11283D",
"H 	c #12283E",
"I 	c #11283E",
"J 	c #11293D",
"K 	c #11273D",
"L 	c #12283C",
"M 	c #11283C",
"N 	c #12273C",
"O 	c #11273C",
"P 	c #12273D",
"Q 	c #12273B",
"R 	c #11273B",
"S 	c #11283B",
"T 	c #11273A",
"U 	c #11263A",
"V 	c #11263B",
"W 	c #102639",
"X 	c #10253A",
"Y 	c #10263A",
"Z 	c #112539",
"` 	c #102539",
" .	c #11253A",
"..	c #112639",
"+.	c #102538",
"@.	c #112538",
"#.	c #102437",
"$.	c #102438",
"%.	c #102537",
"&.	c #102436",
"*.	c #102336",
"=.	c #0F2436",
"-.	c #0F2337",
";.	c #0F2335",
">.	c #102335",
",.	c #0F2336",
"'.	c #0F2435",
").	c #2A3E52",
"  . + @ + #   .   + $ + + +   % + $ % + + $   % ",
"& # *       * # #   * #   # * & &   # # * # # * ",
"= - * ; > * > = * - , > * = = = > > , = - ' = > ",
") ! = ~ ! ) { ) ] ] = ^ ! ] = ) ! = = ! ] ~ ! ! ",
"/ / ( _ _ / _ : _ / < _ / ( / ] / ( / / < _ / _ ",
"[ [ < [ < / } [ < } ( : } | ( [ } [ [ [ < ( | : ",
"1 2 1 3 3 [ 2 2 3 2 [ 1 1 1 1 1 3 1 2 3 3 [ 1 2 ",
"4 2 4 2 5 4 6 2 2 4 5 2 6 5 2 5 5 7 5 4 8 9 5 2 ",
"6 6 6 0 a 0 6 0 0 5 6 0 a a 0 5 a a 6 5 6 a a a ",
"b c 0 d c b b a c c c e e d d b f b d a c b d b ",
"g h b g i h b g i g b e e h j b h b i g g b k b ",
"j l m l l m m h m l j e e m l l h n h m m h m j ",
"o p o o q m p e e e o e e m e e e r o o o r o o ",
"s t u t t v w u e e e e e e e e v t u u o o v s ",
"t t x y x s y t y e e e e e e s y x y s s s t x ",
"z z A B B C B B B B e e e e A z B C B A B D B z ",
"E F G F F F B H H B B e e E F E I J H E F G G B ",
"F K L M N L O F M L M O K G M L L L P L M L M K ",
"Q R R N R R Q R O R R S R R R R R S Q R R Q Q O ",
"R T U U U T U U U R V V U U V U V U U T T R U T ",
"U W X U W Y W Y Z U ` U  .U U ....U ..X U  .U W ",
"` +.Z Z +.` ` Z ` +.@.Z W @.W Z ..` +.W +.W Z Z ",
"+.#.+.+.$.+.%.#.+.#.+.+.$.#.#.$.$.#.%.%.%.#.%.+.",
"&.*.&.*.#.&.#.#.=.*.&.#.#.&.=.#.#.&.#.#.=.-.*.&.",
";.;.;.>.>.>.>.,.,.;.>.*.,.;.*.,.,.'.*.=.;.>.*.*.",
").).).).).).).).).).).).).).).).).).).).).).).)."};
