/* XPM */
static char * shade_inactive_xpm[] = {
"24 26 141 2",
"  	c #4C6076",
". 	c #4C6176",
"+ 	c #4D6076",
"@ 	c #4D6176",
"# 	c #4C6177",
"$ 	c #4C5F75",
"% 	c #4B5F74",
"& 	c #4B5F75",
"* 	c #4C5F74",
"= 	c #4C5E74",
"- 	c #4B5E74",
"; 	c #4A5E72",
"> 	c #4B5E73",
", 	c #4B5E72",
"' 	c #4A5D73",
") 	c #4A5E73",
"! 	c #4B5D73",
"~ 	c #4A5D72",
"{ 	c #495C71",
"] 	c #4A5C71",
"^ 	c #495C70",
"/ 	c #495D71",
"( 	c #4A5C70",
"_ 	c #485B6F",
": 	c #485B70",
"< 	c #485A70",
"[ 	c #495B6F",
"} 	c #485A6F",
"| 	c #495A6F",
"1 	c #475A6D",
"2 	c #47596D",
"3 	c #48596D",
"4 	c #475A6E",
"5 	c #47596E",
"6 	c #46586C",
"7 	c #46586B",
"8 	c #46576C",
"9 	c #45586C",
"0 	c #45586B",
"a 	c #45576B",
"b 	c #44566A",
"c 	c #455769",
"d 	c #45566A",
"e 	c #45576A",
"f 	c #44576A",
"g 	c #445668",
"h 	c #435568",
"i 	c #445568",
"j 	c #435569",
"k 	c #445569",
"l 	c #435367",
"m 	c #425467",
"n 	c #425366",
"o 	c #435467",
"p 	c #435466",
"q 	c #425367",
"r 	c #949AA0",
"s 	c #425466",
"t 	c #435366",
"u 	c #415265",
"v 	c #425364",
"w 	c #425365",
"x 	c #415264",
"y 	c #425265",
"z 	c #415365",
"A 	c #425264",
"B 	c #415062",
"C 	c #405163",
"D 	c #415063",
"E 	c #405162",
"F 	c #415163",
"G 	c #405061",
"H 	c #3F5061",
"I 	c #404F61",
"J 	c #3F4F62",
"K 	c #3F4F61",
"L 	c #3E4E60",
"M 	c #3F4E60",
"N 	c #3E4E5F",
"O 	c #3F4E5F",
"P 	c #3F4F5F",
"Q 	c #3D4D5D",
"R 	c #3D4D5E",
"S 	c #3E4D5D",
"T 	c #3E4D5E",
"U 	c #3E4C5E",
"V 	c #3D4C5D",
"W 	c #3D4C5E",
"X 	c #3C4B5C",
"Y 	c #3D4B5C",
"Z 	c #3C4C5C",
"` 	c #3C4C5B",
" .	c #3C4B5B",
"..	c #3B4A5A",
"+.	c #3B4A5B",
"@.	c #3B495A",
"#.	c #3B495B",
"$.	c #3A4959",
"%.	c #3A4859",
"&.	c #3A4958",
"*.	c #3A4858",
"=.	c #394857",
"-.	c #394757",
";.	c #394756",
">.	c #384757",
",.	c #384756",
"'.	c #384655",
").	c #374555",
"!.	c #384555",
"~.	c #384654",
"{.	c #374553",
"].	c #374454",
"^.	c #364553",
"/.	c #374453",
"(.	c #364453",
"_.	c #374554",
":.	c #364352",
"<.	c #354351",
"[.	c #364351",
"}.	c #364252",
"|.	c #354352",
"1.	c #354251",
"2.	c #354250",
"3.	c #35414F",
"4.	c #344150",
"5.	c #34424F",
"6.	c #344250",
"7.	c #354150",
"8.	c #35424F",
"9.	c #34414F",
"0.	c #33404E",
"a.	c #34404E",
"b.	c #33414E",
"c.	c #34414E",
"d.	c #33404D",
"e.	c #34404D",
"f.	c #323F4C",
"g.	c #323E4C",
"h.	c #333F4D",
"i.	c #333F4C",
"j.	c #4A5969",
"    . .   +   @   + . @           #     + + @   ",
"$ $ % $ & % $ * % = & % * % % $ & - % * * $ % - ",
"; > ; , ; ' ) ' ! ~ ) ~ ) ' , , ' ' > ) ' ' ; ' ",
"{ { ] { ^ { / { ^ { ( { { { { { { / { { ] { ^ { ",
"_ _ _ _ : < _ _ _ _ [ _ _ _ } [ _ } : _ _ | [ } ",
"1 2 2 1 3 2 4 2 2 4 2 5 2 2 5 1 2 1 5 4 1 4 2 2 ",
"6 7 8 9 6 7 6 6 0 a 7 6 7 6 6 6 6 6 6 6 6 7 6 6 ",
"b c d e d d d d e e e d f d e d e e e b e e e d ",
"g h h i i i i i i i i g i i i i g j i i k i j h ",
"l l m m n o p p n p q r r o o s s t p o m p m p ",
"u u v w v x u y y x r r r r y y u u y y z A A u ",
"B C D E C F C F F r r r r r r C C C C F F F F F ",
"G G G H G H G H r r r r r r r r H I J G G K G G ",
"L L M N N O L r r r N r r P r r r M O L O L O N ",
"Q R R R S T U Q V R V r r T W W R R Q W Q R R Q ",
"X Y Z Z Z ` X X Y X Z r r X X Z Z X X  .X X X Z ",
"....................+.r r ....+...@...#.........",
"$.%.$.&.%.%.*.%.&.&.%.%.%.$.%.*.&.*.%.*.%.%.*.*.",
"=.-.-.;.;.-.-.>.;.;.;.-.-.;.,.;.-.-.-.-.;.-.-.-.",
"'.).!.'.'.~.'.'.'.!.'.!.!.'.!.).'.'.).~.'.!.!.!.",
"{.].^./.]././.{.(.{.(.^.^._.(././././.{.{._.^.{.",
":.<.[.[.<.<.[.<.[.:.[.}.<.:.[.[.<.[.[.|.1.|.:.|.",
"2.3.4.5.6.7.2.7.4.6.8.2.2.6.4.8.2.5.9.3.9.3.4.5.",
"0.a.0.a.0.0.b.a.c.0.d.e.a.0.0.0.a.0.b.a.0.0.a.d.",
"f.f.g.f.f.f.h.i.f.f.g.f.h.f.g.i.f.f.f.i.i.f.f.f.",
"j.j.j.j.j.j.j.j.j.j.j.j.j.j.j.j.j.j.j.j.j.j.j.j."};
