/* XPM */
static char * shade_pressed_xpm[] = {
"24 26 111 2",
"  	c #1F466D",
". 	c #20476C",
"+ 	c #20466D",
"@ 	c #20476D",
"# 	c #20466C",
"$ 	c #1F476C",
"% 	c #20466B",
"& 	c #1F466B",
"* 	c #1F466C",
"= 	c #1F476B",
"- 	c #1F456A",
"; 	c #1F456B",
"> 	c #1F466A",
", 	c #1F4569",
"' 	c #1F446A",
") 	c #1F4469",
"! 	c #1E456A",
"~ 	c #1E4469",
"{ 	c #1F4468",
"] 	c #1E4569",
"^ 	c #1F4568",
"/ 	c #1E4468",
"( 	c #1E4467",
"_ 	c #1F4467",
": 	c #1F4368",
"< 	c #1E4367",
"[ 	c #1F4367",
"} 	c #1E4366",
"| 	c #1E4266",
"1 	c #1D4266",
"2 	c #1E4365",
"3 	c #1D4265",
"4 	c #1E4265",
"5 	c #1D4366",
"6 	c #1D4365",
"7 	c #1D4264",
"8 	c #1E4164",
"9 	c #1D4164",
"0 	c #1D4165",
"a 	c #1E4165",
"b 	c #1E4264",
"c 	c #1D4163",
"d 	c #949AA0",
"e 	c #1C4163",
"f 	c #1C4162",
"g 	c #1D4062",
"h 	c #1D4063",
"i 	c #1C4062",
"j 	c #1C4063",
"k 	c #1D4162",
"l 	c #1C4061",
"m 	c #1D4061",
"n 	c #1D3F61",
"o 	c #1C3F60",
"p 	c #1C3F61",
"q 	c #1D4060",
"r 	c #1C4060",
"s 	c #1C3E60",
"t 	c #1C3F5F",
"u 	c #1C3E5F",
"v 	c #1B3E5F",
"w 	c #1B3F5F",
"x 	c #1C3E5E",
"y 	c #1B3E5E",
"z 	c #1C3D5E",
"A 	c #1B3E5D",
"B 	c #1B3D5D",
"C 	c #1C3D5D",
"D 	c #1B3D5E",
"E 	c #1C3E5D",
"F 	c #1B3C5C",
"G 	c #1B3D5C",
"H 	c #1A3D5C",
"I 	c #1A3C5D",
"J 	c #1A3C5C",
"K 	c #1B3C5D",
"L 	c #1B3C5B",
"M 	c #1A3C5B",
"N 	c #1B3D5B",
"O 	c #1B3B5B",
"P 	c #1A3B5A",
"Q 	c #1A3B5B",
"R 	c #1A3C5A",
"S 	c #1B3B5A",
"T 	c #1B3C5A",
"U 	c #1A3A59",
"V 	c #1A3B59",
"W 	c #1A3A5A",
"X 	c #1A3A58",
"Y 	c #193A58",
"Z 	c #193B58",
"` 	c #1A3B58",
" .	c #193A57",
"..	c #1A3957",
"+.	c #1A3A57",
"@.	c #193957",
"#.	c #193958",
"$.	c #193956",
"%.	c #183855",
"&.	c #193955",
"*.	c #193855",
"=.	c #183956",
"-.	c #183856",
";.	c #183955",
">.	c #193856",
",.	c #183754",
"'.	c #183854",
").	c #183755",
"!.	c #193754",
"~.	c #193854",
"{.	c #2A3E52",
"  . + . @ @ . . @ @ # @ . . # + @ @ @ @ # @ $ # ",
"% & & * # % * & & & % * * % # * & & % # # = # & ",
"% - ; - % - - > & > ; ; ; - ; ; - > & - > ; & & ",
"- - , - , ' ) ! ! , , , , , - , ' ! , - , , , , ",
") ~ { ] , { ) { ] , ^ ^ ) / / { { { ~ ~ ^ ) ~ ] ",
"/ / / / ( ( / _ : / < { ( < / / < < [ ( ( [ [ : ",
"< < } } | } } < < < < < } < } < < } } } < } } } ",
"} } | | } 1 1 | | 2 3 1 4 3 2 1 4 4 5 2 | 2 6 5 ",
"4 3 7 3 7 7 7 3 4 4 3 3 7 8 9 0 a 9 7 9 b 3 7 8 ",
"c 9 c 9 9 9 9 c c 9 c d d c c 9 c c c c c 9 c 8 ",
"e f g h i j k g h f d d d d g g c g h g c k g i ",
"l l m n l l l i m d d d d d d i i g m i l m i g ",
"o p p p q p o o d d d d d d d d p p o p p l o r ",
"s t t t s o u d d d t d d t d d d o t v t t w s ",
"v v u x y x y x v v y d d x x y u v x y x z y v ",
"z A B B B B y B C D D d d y E A B D B A D B A y ",
"B F F G H I G J K K B d d G G K G H G G F B B G ",
"J L H M L F N M M F M L L M G J L L M L L N M M ",
"O P O Q Q R S Q R Q R R R R P R R P M R P M T R ",
"U P V V U P V V V V V P U V V U V P P W V V V V ",
"X Y Y Y Y X X U Z Y Z X X Y U ` ` X X U U Y ` X ",
" ...+. .+. .X X  .@. . .#.X X  .@.Y #.@.Y #. . .",
"$.$.$.@.@.$.$.@.$.$.$.$.@.@.$.@.$.@.$.$.$.$.@.@.",
"%.&.%.%.&.*.&.=.*.*.&.*.&.*.*.-.;.;.*.>.*.&.;.&.",
",.'.).!.!.,.'.~.*.'.!.*.~.~.,.!.!.%.%.,.!.'.~.~.",
"{.{.{.{.{.{.{.{.{.{.{.{.{.{.{.{.{.{.{.{.{.{.{.{."};
