/* XPM */
static char * shade_toggled_active_xpm[] = {
"24 26 106 2",
"  	c #21476B",
". 	c #21476C",
"+ 	c #21466C",
"@ 	c #20476B",
"# 	c #20476C",
"$ 	c #21466B",
"% 	c #20466B",
"& 	c #21466A",
"* 	c #20466A",
"= 	c #204669",
"- 	c #20456A",
"; 	c #204569",
"> 	c #21456A",
", 	c #214669",
"' 	c #204568",
") 	c #204469",
"! 	c #204468",
"~ 	c #1F4569",
"{ 	c #204467",
"] 	c #1F4468",
"^ 	c #1F4467",
"/ 	c #1F4567",
"( 	c #1F4568",
"_ 	c #1F4367",
": 	c #1F4366",
"< 	c #1F4466",
"[ 	c #1E4365",
"} 	c #1F4266",
"| 	c #1F4365",
"1 	c #1E4366",
"2 	c #1E4264",
"3 	c #1E4265",
"4 	c #1E4364",
"5 	c #1F4264",
"6 	c #1F4265",
"7 	c #1E4263",
"8 	c #1E4163",
"9 	c #1E4164",
"0 	c #1F4163",
"a 	c #1F4263",
"b 	c #1E4162",
"c 	c #1D4163",
"d 	c #C0C0C0",
"e 	c #1D4162",
"f 	c #1D4062",
"g 	c #1D4161",
"h 	c #1E4062",
"i 	c #1D4061",
"j 	c #1D4060",
"k 	c #1D3F61",
"l 	c #1D3F60",
"m 	c #1C3F60",
"n 	c #1D3F5F",
"o 	c #1C3F5F",
"p 	c #1C405F",
"q 	c #1C3E5F",
"r 	c #1D3E5E",
"s 	c #1C3E5E",
"t 	c #1B3E5E",
"u 	c #1B3E5D",
"v 	c #1B3E5C",
"w 	c #1B3D5D",
"x 	c #1C3D5D",
"y 	c #1C3E5D",
"z 	c #1B3D5B",
"A 	c #1B3C5C",
"B 	c #1B3D5C",
"C 	c #1C3D5C",
"D 	c #1B3C5B",
"E 	c #1A3C5B",
"F 	c #1A3D5B",
"G 	c #1A3B5A",
"H 	c #1B3B5B",
"I 	c #1B3C5A",
"J 	c #1B3B5A",
"K 	c #1A3C5A",
"L 	c #1A3B5B",
"M 	c #1B3B59",
"N 	c #1A3B59",
"O 	c #1A3A59",
"P 	c #1B3A59",
"Q 	c #1A3A58",
"R 	c #1A3B58",
"S 	c #193B59",
"T 	c #193A59",
"U 	c #193A57",
"V 	c #1A3A57",
"W 	c #193A58",
"X 	c #193957",
"Y 	c #193958",
"Z 	c #1A3956",
"` 	c #193956",
" .	c #193A56",
"..	c #1A3957",
"+.	c #1A3A56",
"@.	c #193955",
"#.	c #183855",
"$.	c #193855",
"%.	c #183955",
"&.	c #193856",
"*.	c #193854",
"=.	c #193755",
"-.	c #183854",
";.	c #193754",
">.	c #183755",
",.	c #2A3E52",
"  . + + .   +   + @   # $ % + $ $     .         ",
"$ $ & % % % $ $ $ % % @ * *   & $ * % $ % & % $ ",
"= - - - ; = * * - * = > - * - = > - * , * * , - ",
"' ) ! ; ; ; ; ) ! ~ ; ; ' ; ; ~ ) ; ; ; ; ; ' ; ",
"{ ] ! ^ { ! ] ' ! / / ( ! { ] ! ^ ^ ! { ! ( ] ] ",
"^ _ : ^ < _ < < ^ ^ : < ^ _ : < ^ ^ ^ : < { : < ",
": : : [ : } | | 1 1 1 : 1 : | : 1 | 1 : : [ | | ",
"2 2 3 4 3 5 3 6 6 3 5 3 6 6 [ | 3 3 2 3 6 2 3 6 ",
"2 7 7 8 9 7 7 0 9 2 a 8 9 8 2 9 7 7 2 8 7 2 7 2 ",
"b c c b 8 c b b c c 8 d d 8 c 8 c c e 8 8 c 8 8 ",
"f e e f g e b h f e b d d e e b f e e b e e b e ",
"i i i j i i i k i l i d d i l i i i i i i i i i ",
"l m m l n m o d d d l d d m d d d j l l l o p l ",
"q o o o o n o r d d d d d d d d q n n o q o o o ",
"s t s s s u s s s d d d d d d s s s s s s s s s ",
"v w x w y y x x x x d d d d x x x u w w w x x x ",
"z A B B C C B B B B A d d B C B B B B B A B A B ",
"D D D D D D D E D D D D D E D D D z D F D z D E ",
"G G H I I I I G J I K J G L G G J K K G K G K K ",
"M N N J N N N N O N N M N N M N N N N N O M P M ",
"Q N R N Q Q O R R S Q Q Q N R Q Q O Q Q T Q Q R ",
"U V V U W X W U U V Q V W W X Q U X U V Q U Y U ",
"Z ` X `  .....X  .X ..V Z ` ..` ` X Z +.` X ` ` ",
"@.#.$.@.` $.$.` %.@.@.` @.$.%.@.` ` ` @.@.@.&.&.",
"*.$.*.*.#.$.=.-.*.;.-.#.;.#.-.*.$.$.>.-.$.*.*.;.",
",.,.,.,.,.,.,.,.,.,.,.,.,.,.,.,.,.,.,.,.,.,.,.,."};
