/* XPM */
static char * shade_prelight_xpm[] = {
"24 26 106 2",
"  	c #18344F",
". 	c #18344E",
"+ 	c #18334E",
"@ 	c #17334E",
"# 	c #17344E",
"$ 	c #17334F",
"% 	c #18334F",
"& 	c #17344F",
"* 	c #17334D",
"= 	c #17324E",
"- 	c #18334D",
"; 	c #17324C",
"> 	c #17324D",
", 	c #17334C",
"' 	c #18324C",
") 	c #17324B",
"! 	c #17314B",
"~ 	c #16314B",
"{ 	c #16324B",
"] 	c #17314C",
"^ 	c #16304A",
"/ 	c #16314A",
"( 	c #17314A",
"_ 	c #17304A",
": 	c #163049",
"< 	c #163048",
"[ 	c #162F49",
"} 	c #152F49",
"| 	c #152F47",
"1 	c #152F48",
"2 	c #162F47",
"3 	c #162F48",
"4 	c #153048",
"5 	c #163047",
"6 	c #152E46",
"7 	c #152F46",
"8 	c #152E47",
"9 	c #142E46",
"0 	c #142D45",
"a 	c #152E45",
"b 	c #152D45",
"c 	c #142D46",
"d 	c #142E45",
"e 	c #152D46",
"f 	c #142D44",
"g 	c #152D44",
"h 	c #536980",
"i 	c #142C43",
"j 	c #132C43",
"k 	c #142D43",
"l 	c #142C44",
"m 	c #132C42",
"n 	c #132B42",
"o 	c #142B42",
"p 	c #142C42",
"q 	c #132B41",
"r 	c #132A41",
"s 	c #142A41",
"t 	c #142B41",
"u 	c #122A3F",
"v 	c #132A40",
"w 	c #132B40",
"x 	c #122A40",
"y 	c #132A3F",
"z 	c #12293F",
"A 	c #13293F",
"B 	c #12293E",
"C 	c #13293E",
"D 	c #12283E",
"E 	c #12283D",
"F 	c #12293D",
"G 	c #11283C",
"H 	c #12283C",
"I 	c #12273C",
"J 	c #11283D",
"K 	c #11273C",
"L 	c #11273B",
"M 	c #12273B",
"N 	c #11263A",
"O 	c #11273A",
"P 	c #10263A",
"Q 	c #102639",
"R 	c #112639",
"S 	c #112539",
"T 	c #102539",
"U 	c #102538",
"V 	c #102537",
"W 	c #102437",
"X 	c #112538",
"Y 	c #102438",
"Z 	c #0F2437",
"` 	c #0F2436",
" .	c #102436",
"..	c #0F2537",
"+.	c #0F2336",
"@.	c #102336",
"#.	c #0F2435",
"$.	c #0F2334",
"%.	c #0F2335",
"&.	c #0F2235",
"*.	c #0E2234",
"=.	c #0E2233",
"-.	c #0F2234",
";.	c #0F2233",
">.	c #0F2333",
",.	c #2A3E52",
"  . +   . @   . # + . . # # . +   + $ % . & . % ",
"* @ = - - * * @ @ * @ * * + * - @ @ - * * * * * ",
"; ; ; ; ; ; ; ; > > > ; ; > ; ; ; ; ; , ' ; ; ; ",
") ! ) ! ~ { ! ) ) ! ! ! ) ] ) ! ! ! ) ) ] ) ~ ~ ",
"^ ^ ^ ^ / ( _ ^ / / / / ( _ ( / / / / / / / ^ / ",
": : : : < [ < : : : : : : : : < : : : } : : : [ ",
"| | 1 2 3 4 < 3 3 1 3 1 | | 3 | 1 1 1 1 | 3 5 1 ",
"6 | 7 7 8 | 8 8 8 2 7 6 8 6 | 8 7 6 8 | 8 | 2 8 ",
"9 0 9 a b c 6 a b 9 6 d 9 9 e d b 6 a 6 e d 6 0 ",
"0 f b f f b g g g f f h h 0 f f 0 0 f f f g f b ",
"i j k k k i i f i k h h h h k i k i k i i i l l ",
"m m m n o o i n p h h h h h h m n p o m m o o i ",
"q q q q r q q q h h h h h h h h q q q s q r q t ",
"u v w v v x x h h h v h h y h h h v x v y v v v ",
"z A B C u C A A u z A h h A z B y z y z A A B A ",
"B D B D E D E E D B E h h E F E B F E D D D D D ",
"E G H I G H E I J G H h h H E G H K E G H K H H ",
"K L K M L L K K L L L K K K L K L L M L K L K L ",
"N N N N O N N N O N P O N P L N O N O O O N N N ",
"Q R S R T Q T T R R R R S S S Q T Q R T P Q T R ",
"U V U U U W U U V X U U U U U V U U Y U U U U U ",
"Z Z ` W ` Z Z `  .Z W W Z W Z Z W Z W W Z ....W ",
"`  .` ` +.@.@.+.#.` ` +.@.` ` @. . .+.@.+. . .` ",
"$.$.%.$.%.$.%.%.$.%.%.%.%.%.$.%.$.%.&.$.%.%.&.%.",
"*.*.*.=.-.-.;.;.-.>.;.=.-.=.-.*.-.-.$.*.-.*.-.-.",
",.,.,.,.,.,.,.,.,.,.,.,.,.,.,.,.,.,.,.,.,.,.,.,."};
