/* XPM */
static char * shade_toggled_inactive_xpm[] = {
"24 26 94 2",
"  	c #20476B",
". 	c #20476C",
"+ 	c #1F476C",
"@ 	c #20466C",
"# 	c #1F466B",
"$ 	c #20466B",
"% 	c #20466A",
"& 	c #1F476B",
"* 	c #1F476A",
"= 	c #1F466A",
"- 	c #1F4569",
"; 	c #1F456A",
"> 	c #20456A",
", 	c #1F4669",
"' 	c #204569",
") 	c #204669",
"! 	c #1F4568",
"~ 	c #1F4468",
"{ 	c #1F4567",
"] 	c #1E4568",
"^ 	c #1E4467",
"/ 	c #1F4467",
"( 	c #1E4466",
"_ 	c #1F4366",
": 	c #1E4367",
"< 	c #1E4366",
"[ 	c #1F4466",
"} 	c #1F4367",
"| 	c #1E4365",
"1 	c #1F4365",
"2 	c #1E4266",
"3 	c #1E4265",
"4 	c #1E4264",
"5 	c #1E4364",
"6 	c #1E4263",
"7 	c #1D4163",
"8 	c #1D4263",
"9 	c #949AA0",
"0 	c #1E4164",
"a 	c #1D4264",
"b 	c #1E4163",
"c 	c #1E4162",
"d 	c #1E4262",
"e 	c #1D4162",
"f 	c #1D4262",
"g 	c #1D4161",
"h 	c #1D4062",
"i 	c #1E4161",
"j 	c #1E4062",
"k 	c #1E4061",
"l 	c #1D4061",
"m 	c #1D4060",
"n 	c #1E4060",
"o 	c #1C4060",
"p 	c #1D3F60",
"q 	c #1D3F5F",
"r 	c #1C3F5F",
"s 	c #1D405F",
"t 	c #1D3E5E",
"u 	c #1C3F5E",
"v 	c #1C3E5F",
"w 	c #1D3F5E",
"x 	c #1C3E5E",
"y 	c #1D3E5D",
"z 	c #1C3E5D",
"A 	c #1C3D5C",
"B 	c #1C3D5D",
"C 	c #1C3E5C",
"D 	c #1B3D5D",
"E 	c #1B3D5C",
"F 	c #1C3D5B",
"G 	c #1B3D5B",
"H 	c #1C3C5B",
"I 	c #1C3C5A",
"J 	c #1B3C5A",
"K 	c #1B3D5A",
"L 	c #1C3D5A",
"M 	c #1B3C5B",
"N 	c #1B3C59",
"O 	c #1C3C59",
"P 	c #1C3B59",
"Q 	c #1B3B59",
"R 	c #1B3B58",
"S 	c #1A3B59",
"T 	c #1A3B58",
"U 	c #1B3A58",
"V 	c #1A3A58",
"W 	c #1B3A57",
"X 	c #1A3A57",
"Y 	c #1B3B57",
"Z 	c #1A3B57",
"` 	c #1A3A56",
" .	c #1B3A56",
"..	c #4A5969",
"  . . +       + + . . .   . @ .   @ . + . @ # @ ",
"# # $ % % % & # $   % * # $     $ = # % # $ $ % ",
"% = = = - = % ; > , ; , - % % % ' % % ) > = % ; ",
"' - , , - - - ' - - - - - - - - - - - , - , , - ",
"! ~ ! { ! ! ! ! ! ~ ~ ! ! ~ ! ! ! ! ~ ] { ! ! ~ ",
"^ / ^ / ^ / / / ^ / / / ^ / / / / / / / / / / / ",
"( ( _ : ( < < < [ / _ ( _ _ } _ : _ ( ( < [ < [ ",
"_ | < | < | | < | 1 1 | | | 2 < | 1 | | _ < | | ",
"3 | 3 4 3 4 3 4 5 5 3 3 4 | 4 4 3 3 5 | 4 4 5 5 ",
"6 6 6 6 7 6 4 6 8 6 4 9 9 4 4 0 6 a b 6 4 8 6 0 ",
"c d 7 b e f 7 d 8 6 d 9 9 e 7 c b b 7 b b 8 b 7 ",
"g e h i j c c g h c h 9 9 c e i c h g i e j c i ",
"k g g l m g m 9 9 9 n 9 9 k 9 9 9 l l g l l l l ",
"m m o m m o m p 9 9 9 9 9 9 9 9 m p m o p m m m ",
"q q r q q r r r q 9 9 9 9 9 9 r q q q q r q q s ",
"t q u v w x t r t w 9 9 9 9 w r w x x q w u w q ",
"t y z z z z x z t z z 9 9 x z z z z y x x x z z ",
"A z A A z B C B C C B C A C B z C B C A C A z D ",
"E A F F A G A G F E F F A G F F F A A E E A F H ",
"I H J K F J H L M G J L J F K M M J M G I M L J ",
"J I J J I J J J J J N J J I J J J J O J J I J J ",
"N N N P Q Q N Q N Q Q Q N Q Q N N N Q N N N Q Q ",
"R R S Q Q R R R Q T T R T R R R R R R U R V R R ",
"R R W X W W Y W Y T Y W W Z V U X Z X Y Z W X Y ",
"X W X ` ` W  .` `  . . .X  .` W ` W `  .` X  .` ",
"................................................"};
