/* XPM */
static char * stick_pressed_xpm[] = {
"24 26 94 2",
"  	c #20476B",
". 	c #20476C",
"+ 	c #1F476B",
"@ 	c #20466B",
"# 	c #20466C",
"$ 	c #1F466C",
"% 	c #1F476C",
"& 	c #1F466B",
"* 	c #20466A",
"= 	c #1F476A",
"- 	c #1F466A",
"; 	c #20456A",
"> 	c #204669",
", 	c #1F456A",
"' 	c #1F4669",
") 	c #1F4569",
"! 	c #204569",
"~ 	c #1F4568",
"{ 	c #1F4468",
"] 	c #1F4567",
"^ 	c #1E4468",
"/ 	c #1E4568",
"( 	c #1F4467",
"_ 	c #1E4467",
": 	c #1F4466",
"< 	c #1E4366",
"[ 	c #1F4366",
"} 	c #1E4466",
"| 	c #1E4265",
"1 	c #1F4365",
"2 	c #1E4365",
"3 	c #1F4265",
"4 	c #1E4364",
"5 	c #1E4264",
"6 	c #1E4263",
"7 	c #1D4264",
"8 	c #949AA0",
"9 	c #1D4263",
"0 	c #1E4163",
"a 	c #1D4162",
"b 	c #1E4162",
"c 	c #1D4262",
"d 	c #1E4262",
"e 	c #1D4163",
"f 	c #1D4161",
"g 	c #1E4161",
"h 	c #1D4062",
"i 	c #1D4061",
"j 	c #1D4060",
"k 	c #1E4060",
"l 	c #1D3F60",
"m 	c #1C3F60",
"n 	c #1D405F",
"o 	c #1C4060",
"p 	c #1C3F5F",
"q 	c #1D3F5F",
"r 	c #1C405F",
"s 	c #1C3E5E",
"t 	c #1C3E5F",
"u 	c #1C3F5E",
"v 	c #1D3E5E",
"w 	c #1D3F5E",
"x 	c #1C3E5D",
"y 	c #1C3F5D",
"z 	c #1C3D5D",
"A 	c #1B3D5C",
"B 	c #1C3E5C",
"C 	c #1C3D5C",
"D 	c #1C3D5B",
"E 	c #1C3E5B",
"F 	c #1B3D5B",
"G 	c #1B3C5B",
"H 	c #1C3C5B",
"I 	c #1C3D5A",
"J 	c #1B3C5A",
"K 	c #1B3D5A",
"L 	c #1C3C5A",
"M 	c #1B3C59",
"N 	c #1B3B59",
"O 	c #1C3C59",
"P 	c #1A3B58",
"Q 	c #1B3A58",
"R 	c #1B3B58",
"S 	c #1B3A57",
"T 	c #1A3A57",
"U 	c #1B3B57",
"V 	c #1A3A58",
"W 	c #1A3B57",
"X 	c #1B3A56",
"Y 	c #1A3A56",
"Z 	c #1B3957",
"` 	c #1A3957",
" .	c #1A3956",
"..	c #2A3E52",
"  . +   . @   # . @ . +   # @ $ . . % . & . . . ",
"@   * @ * @ @ * @ * * @     * + * @ @   = @ * @ ",
"* * - ; - > * - - * - , , * ' > ' * * ) > * ; ' ",
") ! ) ! ) ) ) ) ) ' ' ' ) ! ) ) ! ~ ) ~ ) ' ) ) ",
"~ ~ { ~ { { ] ^ ~ { ~ ~ ~ { / ~ { ~ { { { { / { ",
"( ( ( ( ( ( _ _ ( ( ( _ _ ( ( ( ( _ ( ( { ( ( ( ",
": : < [ : [ < : < _ [ : : : : } ( } < : < [ < < ",
"| 1 2 < 2 1 1 | < 1 3 1 2 2 1 | 1 1 1 1 1 2 2 2 ",
"4 | 2 2 5 2 5 2 2 | | 5 | 2 2 5 | 4 5 2 4 5 5 5 ",
"6 7 5 7 5 5 5 6 5 5 5 8 8 9 9 5 5 6 6 5 5 6 5 7 ",
"0 0 a b 0 b c b c 8 8 8 8 8 8 9 d d e e b d 0 0 ",
"a f a a a a a f a 8 8 g h 8 8 a a h g i b f i h ",
"i j i i j i i j 8 8 j i f i 8 8 j k i i j i i j ",
"j l j l l m j j 8 8 j l j n 8 8 l m j j j j j o ",
"p q q q n q q p p 8 8 q q 8 8 r p n q p p q p q ",
"s s t q u p s u u 8 8 8 8 8 8 s u v w s s s w w ",
"x x x x x s x y x x x 8 8 x x s s x x x x s s x ",
"z A x z z z z B z B z x x C z B x z C B z B B C ",
"C B A D C C E A C C A D A C D D C D C D A C B D ",
"F G F H H F I I D H J F D D D H F K L D G G D H ",
"J J J J L J J J J J J J L J J J M J J J L L J L ",
"N M M M M M N N N O N N N M N M M N N N M N M M ",
"P P P Q R R R P R R R R R R R R R Q R R N R R R ",
"S R S T Q P U R S T S U S S P R V U S V T S W T ",
"X T X Y Z X Y X X X ` ` T S  .X S Y S T Y S Y X ",
"................................................"};
