/* XPM */
static char * stick_prelight_xpm[] = {
"24 26 112 2",
"  	c #18344F",
". 	c #18344E",
"+ 	c #18334E",
"@ 	c #18334F",
"# 	c #17334E",
"$ 	c #17344E",
"% 	c #17334D",
"& 	c #18334D",
"* 	c #18324D",
"= 	c #17324D",
"- 	c #17334C",
"; 	c #17324C",
"> 	c #16324B",
", 	c #17314B",
"' 	c #17324B",
") 	c #16314B",
"! 	c #16314C",
"~ 	c #16314A",
"{ 	c #16304A",
"] 	c #17304A",
"^ 	c #17314A",
"/ 	c #163049",
"( 	c #162F49",
"_ 	c #153049",
": 	c #153048",
"< 	c #163048",
"[ 	c #152F48",
"} 	c #162F47",
"| 	c #153047",
"1 	c #152F47",
"2 	c #163047",
"3 	c #162F48",
"4 	c #152E47",
"5 	c #152F46",
"6 	c #162E47",
"7 	c #162F46",
"8 	c #152E46",
"9 	c #162E46",
"0 	c #152E45",
"a 	c #142D45",
"b 	c #152D46",
"c 	c #142E46",
"d 	c #142E45",
"e 	c #152D45",
"f 	c #142D46",
"g 	c #152D44",
"h 	c #142D44",
"i 	c #536980",
"j 	c #142C43",
"k 	c #142C44",
"l 	c #142D43",
"m 	c #132D43",
"n 	c #142C42",
"o 	c #132B42",
"p 	c #142B42",
"q 	c #132C42",
"r 	c #132A40",
"s 	c #132B41",
"t 	c #142B41",
"u 	c #132B40",
"v 	c #132A41",
"w 	c #142A41",
"x 	c #132A3F",
"y 	c #122A40",
"z 	c #12293F",
"A 	c #13293F",
"B 	c #12293E",
"C 	c #12283D",
"D 	c #12283E",
"E 	c #12293D",
"F 	c #12283C",
"G 	c #11283C",
"H 	c #12273C",
"I 	c #11283D",
"J 	c #11273C",
"K 	c #12273D",
"L 	c #11273D",
"M 	c #12273B",
"N 	c #11273B",
"O 	c #11283B",
"P 	c #11273A",
"Q 	c #11263A",
"R 	c #11263B",
"S 	c #10273A",
"T 	c #10263A",
"U 	c #10263B",
"V 	c #112539",
"W 	c #112639",
"X 	c #102639",
"Y 	c #102539",
"Z 	c #102538",
"` 	c #102438",
" .	c #102537",
"..	c #0F2437",
"+.	c #0F2436",
"@.	c #102437",
"#.	c #102436",
"$.	c #0F2536",
"%.	c #0F2335",
"&.	c #0F2336",
"*.	c #102336",
"=.	c #0F2435",
"-.	c #0E2234",
";.	c #0F2235",
">.	c #0E2335",
",.	c #0F2234",
"'.	c #0E2334",
").	c #0F2334",
"!.	c #0F2233",
"~.	c #0E2233",
"{.	c #0F2134",
"].	c #2A3E52",
"  . + +     + . . . .   . @   . @ + @ + . # $ $ ",
"% # & % & * # % & & + # % # # & & & = + & % % # ",
"- - ; = ; ; ; ; ; - ; ; ; ; ; ; = ; ; = = ; ; = ",
"> , ' , , > > ' , ' ' ; ) , , ) , ! , ' , ) > ' ",
"~ { { { ~ { { ~ ] { { ~ ^ ~ { ^ ~ ~ ^ ~ ] ~ ~ ~ ",
"/ / ( / _ ( / : / < / < ( < / / / / / / / ( < < ",
": [ } | | : : 1 [ 1 : | 2 3 [ 1 3 [ 3 3 3 3 | } ",
"4 5 6 1 7 } 8 5 5 4 8 1 4 1 1 9 5 7 5 8 5 5 1 7 ",
"0 8 0 a 8 b 0 c 0 d e d 0 0 c 8 e c b d 0 0 f b ",
"g h g a e h e g h h h i i e h e h a a h h a g g ",
"h j j j j j j j j i i i i i i j j j k j l l j m ",
"n o o p p p j o q i i n p i i n q p p o p p n q ",
"r s s t s s s s i i s u s s i i s v t t w u u v ",
"r r r x r x y y i i r r r r i i r r r r y r r r ",
"z A B B z A z z B i i z B i i z A A B x B B z z ",
"C D E E C E E B D i i i i i i D D B B C C E E E ",
"F G H G C F I C I C G i i C J F G K C G F H L F ",
"J M N M J N O N N N J N M N M N N N N G N N N H ",
"P Q R Q Q Q P S Q T Q Q Q U P Q Q P Q N R P T P ",
"V W X W X W Y Y W W X Y X W W W V W W T X Y X Y ",
"Z Z ` Z Z Z Z Z Z Z Z Z Z Z Z  .` Z  .Z Z ` Z Z ",
"..+.@.@.#...#...@.#.+.#.@.@...$.@.@.@.#.#.....#.",
"+.%.&.*.&.%.+.=.*.%.+.#.=.*.&.#.+.+.&.#.#.&.+.#.",
"-.;.%.>.;.,.%.%.'.>.).,.>.).).%.%.;.,.).%.%.).).",
"-.!.,.!.~.-.-.-.!.!.~.!.!.,.,.{.~.~.!.~.-.-.,.-.",
"].].].].].].].].].].].].].].].].].].].].].].].]."};
