/* XPM */
static char * stick_toggled_prelight_xpm[] = {
"24 26 111 2",
"  	c #18344E",
". 	c #18334E",
"+ 	c #18344D",
"@ 	c #17344E",
"# 	c #18334D",
"$ 	c #17334D",
"% 	c #18334C",
"& 	c #17334C",
"* 	c #18344C",
"= 	c #17324C",
"- 	c #17334B",
"; 	c #18324C",
"> 	c #17324B",
", 	c #16324B",
"' 	c #17314B",
") 	c #17324A",
"! 	c #16314A",
"~ 	c #16314B",
"{ 	c #16324A",
"] 	c #173149",
"^ 	c #17314A",
"/ 	c #163149",
"( 	c #163049",
"_ 	c #173049",
": 	c #163048",
"< 	c #163148",
"[ 	c #162F48",
"} 	c #162F47",
"| 	c #163047",
"1 	c #152F47",
"2 	c #153048",
"3 	c #162F46",
"4 	c #152E46",
"5 	c #152F46",
"6 	c #152F45",
"7 	c #152E45",
"8 	c #162E45",
"9 	c #152E44",
"0 	c #142E44",
"a 	c #152D45",
"b 	c #152D44",
"c 	c #142D44",
"d 	c #536980",
"e 	c #142D45",
"f 	c #152D43",
"g 	c #152C44",
"h 	c #142D43",
"i 	c #152C43",
"j 	c #142D42",
"k 	c #142C43",
"l 	c #142C42",
"m 	c #152D42",
"n 	c #142C41",
"o 	c #142B41",
"p 	c #132B41",
"q 	c #132C41",
"r 	c #132B40",
"s 	c #142B40",
"t 	c #132A40",
"u 	c #142A40",
"v 	c #132A41",
"w 	c #132A3F",
"x 	c #142A3F",
"y 	c #132B3F",
"z 	c #122A3E",
"A 	c #13293E",
"B 	c #132A3E",
"C 	c #12293E",
"D 	c #13283D",
"E 	c #12293D",
"F 	c #13293D",
"G 	c #12283D",
"H 	c #13283C",
"I 	c #12283C",
"J 	c #12273B",
"K 	c #11273B",
"L 	c #12283A",
"M 	c #12283B",
"N 	c #11283B",
"O 	c #11263A",
"P 	c #112639",
"Q 	c #122739",
"R 	c #12273A",
"S 	c #122639",
"T 	c #11273A",
"U 	c #112739",
"V 	c #12263A",
"W 	c #112638",
"X 	c #102639",
"Y 	c #112539",
"Z 	c #112538",
"` 	c #102538",
" .	c #112537",
"..	c #102638",
"+.	c #102537",
"@.	c #112637",
"#.	c #102536",
"$.	c #112437",
"%.	c #102436",
"&.	c #102437",
"*.	c #112436",
"=.	c #112536",
"-.	c #102336",
";.	c #102335",
">.	c #0F2435",
",.	c #102435",
"'.	c #102334",
").	c #102434",
"!.	c #0F2334",
"~.	c #0F2335",
"{.	c #2A3E52",
"    .       +   .       @             + #   .   ",
"# $ % $ # % % $ & # % # # $ # * # & $ # # + & # ",
"= % = - - - ; & > > = = > % - = > = = > > = & = ",
", > ' ' , ' ) ) ! > ~ ' > > { > > ) > > > ' > > ",
"! ! ] ] ] ^ / ^ ] ] ^ ] ^ / / / ^ ! ! ] ! / ! / ",
"( ( / _ : ( ( ( : ( < ( : ( < / < : < ( : : : / ",
"[ [ } : | } | } : } | } : | } 1 } 2 | | : } } | ",
"3 } 3 4 } 5 } } 3 3 3 3 1 5 1 } 5 } 1 1 5 5 5 } ",
"4 6 7 5 4 6 4 7 6 7 5 7 4 7 8 7 7 8 7 7 8 7 6 7 ",
"9 0 a b 7 b b 9 9 9 c d d b 0 9 e b 0 9 b 9 b a ",
"f f b c g h f c b d d d d d d h b b h h f h i c ",
"j k j l j l l l l d d d d d d l j k j l j l l m ",
"n o p p n p o p d d d d d d d d l p n p o q p o ",
"r r r s t r r p d d d d d d d d r s r s t r u v ",
"w w w w w w w w x d d d d d d w w w w y w t w w ",
"z A A A A B A C z d d d d d d C A C A B B B A A ",
"D E D F E E E F E E F d d G E H F E E E E G G G ",
"I I I I I I I I I I I I I I I I I I I I I I I I ",
"J K J J J K J L M J N K K K L J J K J J J K J M ",
"O P P O Q R S T R O O T O U T O T O O O T V T R ",
"P P W X W P P P Y P W P P P P Y P Y P W P P P W ",
"Z Z ` Z Z  .Z ..+.W  .+. ...@.Z @.Z `  .Z Z Z Z ",
"+.#.+.$.%.+.&.&.#. .+.&.+.*.%.&.&.%.+. .&.&.+.=.",
"-.;.>.;.%.-.%.%.%.,.,.%.-.%.-.%.%.%.%.,.%.-.;.%.",
";.;.'.'.;.,.'.>.;.).!.!.~.!.;.;.!.~.;.'.;.!.'.;.",
"{.{.{.{.{.{.{.{.{.{.{.{.{.{.{.{.{.{.{.{.{.{.{.{."};
