/* XPM */
static char * stick_inactive_xpm[] = {
"24 26 130 2",
"  	c #4C6176",
". 	c #4D6076",
"+ 	c #4C6077",
"@ 	c #4C6076",
"# 	c #4D6176",
"$ 	c #4C6177",
"% 	c #4B5F75",
"& 	c #4C5F74",
"* 	c #4B5F74",
"= 	c #4C5F75",
"- 	c #4B5D73",
"; 	c #4B5E73",
"> 	c #4A5D73",
", 	c #4A5E73",
"' 	c #4B5D72",
") 	c #4A5D72",
"! 	c #4A5E72",
"~ 	c #495C71",
"{ 	c #4A5C71",
"] 	c #495D71",
"^ 	c #485B70",
"/ 	c #485B6F",
"( 	c #485A6F",
"_ 	c #485A70",
": 	c #47596E",
"< 	c #47596D",
"[ 	c #475A6D",
"} 	c #475A6E",
"| 	c #48596D",
"1 	c #46586C",
"2 	c #45586C",
"3 	c #46586B",
"4 	c #45576A",
"5 	c #45566A",
"6 	c #44576A",
"7 	c #44566A",
"8 	c #445568",
"9 	c #445569",
"0 	c #435569",
"a 	c #435568",
"b 	c #435467",
"c 	c #435466",
"d 	c #425367",
"e 	c #425466",
"f 	c #425467",
"g 	c #435367",
"h 	c #949AA0",
"i 	c #425265",
"j 	c #425365",
"k 	c #415265",
"l 	c #415164",
"m 	c #405163",
"n 	c #415163",
"o 	c #405063",
"p 	c #405164",
"q 	c #405064",
"r 	c #3F5062",
"s 	c #405061",
"t 	c #405062",
"u 	c #3F4F62",
"v 	c #3F5061",
"w 	c #3F4F61",
"x 	c #404F61",
"y 	c #3F4E60",
"z 	c #3E4E60",
"A 	c #3F4F60",
"B 	c #3E4E5F",
"C 	c #3E4D5E",
"D 	c #3E4C5E",
"E 	c #3D4D5E",
"F 	c #3D4C5F",
"G 	c #3D4D5F",
"H 	c #3D4C5E",
"I 	c #3C4B5D",
"J 	c #3C4B5C",
"K 	c #3D4B5C",
"L 	c #3D4C5C",
"M 	c #3C4C5D",
"N 	c #3D4B5D",
"O 	c #3B4A5B",
"P 	c #3B4A5A",
"Q 	c #3B495B",
"R 	c #3A4959",
"S 	c #3A4859",
"T 	c #3A495A",
"U 	c #3A485A",
"V 	c #394757",
"W 	c #394758",
"X 	c #384757",
"Y 	c #394858",
"Z 	c #394857",
"` 	c #384656",
" .	c #374656",
"..	c #384655",
"+.	c #374556",
"@.	c #384556",
"#.	c #374555",
"$.	c #374655",
"%.	c #384555",
"&.	c #364454",
"*.	c #374454",
"=.	c #374554",
"-.	c #374553",
";.	c #364554",
">.	c #354352",
",.	c #354253",
"'.	c #364353",
").	c #354353",
"!.	c #354252",
"~.	c #364352",
"{.	c #364252",
"].	c #354150",
"^.	c #344150",
"/.	c #344250",
"(.	c #344151",
"_.	c #344251",
":.	c #354151",
"<.	c #354250",
"[.	c #354251",
"}.	c #34404F",
"|.	c #33404E",
"1.	c #34404E",
"2.	c #33404F",
"3.	c #33414F",
"4.	c #333F4D",
"5.	c #323F4D",
"6.	c #323E4D",
"7.	c #323F4E",
"8.	c #333E4D",
"9.	c #4A5969",
"    . + . @ . . @ @ .         @ # @ @ @   $ .   ",
"% & * % % = % * * % % % & = % & % = & % % & = * ",
"- ; > , > ' > ; > > - ) ) , ; > ! , > > > ) > - ",
"~ { { ~ ~ { ~ ~ ~ { ~ ~ ~ ~ ~ ~ ~ ~ ] ~ ~ ~ ~ ~ ",
"^ / / / ( ( / ^ / / ( ( / ( ^ _ / ^ / / ^ / / ^ ",
": < [ < : : : : < : } : < | < < } [ : } [ } } < ",
"1 1 1 1 1 2 1 1 1 1 1 1 1 3 1 1 1 1 1 1 1 1 1 1 ",
"4 4 5 5 5 5 6 4 4 5 5 5 5 4 7 5 7 7 4 6 4 4 5 4 ",
"8 9 9 8 9 8 0 a 8 9 8 a 9 0 9 a 0 9 a 8 8 8 a 0 ",
"b c d b e c e b f e g h h b b g g b g b f b f c ",
"i j k i k k i k j h h h h h h k k k i i k i j i ",
"l m n o p m m n l h h l q h h n n n n n l n l n ",
"r s t u u r u v h h w x r s h h t w x v r r x v ",
"y z y A z z B y h h y z y y h h z z y y z y y y ",
"C D E E F E G H E h h E H h h H E H E E E E G E ",
"I J I I K L I M M h h h h h h N J M M I M J I M ",
"O O O O O O O O P P O h h O Q O P P P O O P O O ",
"R S S S R R S T R S U S S R S S S T S S R R R S ",
"V W V V V X V V W W W X V V Y V V Y V Z V Z V V ",
"`  . ...+.` .. .` ..@.@. .` ..` #.` $.%.` ` @.` ",
"&.*.=.*.*.-.=.;.=.;.;.&.=.=.&.*.*.=.*.&.*.=.*.*.",
">.,.'.'.).!.~.).'.{.'.'.>.).~.'.'.'.>.~.'.).'.~.",
"].^./.(.^.]._.:.<.[./._.<._.[.].^./.[.(./.[.^._.",
"}.}.|.}.1.}.1.2.3.3.}.1.}.2.2.2.2.|.}.2.2.}.}.2.",
"4.4.5.6.7.5.8.6.4.7.5.4.7.6.5.7.8.4.8.5.4.6.6.6.",
"9.9.9.9.9.9.9.9.9.9.9.9.9.9.9.9.9.9.9.9.9.9.9.9."};
