/* XPM */
static char * stick_toggled_active_xpm[] = {
"24 26 101 2",
"  	c #21466A",
". 	c #21456B",
"+ 	c #21466B",
"@ 	c #21456A",
"# 	c #20466A",
"$ 	c #20456B",
"% 	c #204569",
"& 	c #214569",
"* 	c #20456A",
"= 	c #214669",
"- 	c #204469",
"; 	c #214469",
"> 	c #204468",
", 	c #204568",
"' 	c #1F4468",
") 	c #1F4568",
"! 	c #204467",
"~ 	c #1F4467",
"{ 	c #204367",
"] 	c #1F4367",
"^ 	c #1F4368",
"/ 	c #1F4366",
"( 	c #1F4466",
"_ 	c #204366",
": 	c #1F4266",
"< 	c #1F4365",
"[ 	c #1E4266",
"} 	c #1E4366",
"| 	c #1F4265",
"1 	c #1E4365",
"2 	c #1E4265",
"3 	c #1E4264",
"4 	c #1E4165",
"5 	c #1F4164",
"6 	c #1F4264",
"7 	c #1F4165",
"8 	c #1E4164",
"9 	c #1E4163",
"0 	c #1F4163",
"a 	c #1E4063",
"b 	c #1E4162",
"c 	c #1D4063",
"d 	c #C0C0C0",
"e 	c #1D4163",
"f 	c #1D4062",
"g 	c #1D4162",
"h 	c #1E4062",
"i 	c #1D3F61",
"j 	c #1D4061",
"k 	c #1D3F62",
"l 	c #1C3F61",
"m 	c #1D3F60",
"n 	c #1D4060",
"o 	c #1C4060",
"p 	c #1C3F60",
"q 	c #1C3E5F",
"r 	c #1C3E60",
"s 	c #1C3F5F",
"t 	c #1D3E5F",
"u 	c #1D3E60",
"v 	c #1C3E5E",
"w 	c #1C3D5E",
"x 	c #1B3E5D",
"y 	c #1B3D5E",
"z 	c #1B3E5E",
"A 	c #1C3D5D",
"B 	c #1C3E5D",
"C 	c #1B3D5D",
"D 	c #1B3D5C",
"E 	c #1C3D5C",
"F 	c #1B3C5C",
"G 	c #1A3D5C",
"H 	c #1B3C5D",
"I 	c #1B3C5B",
"J 	c #1A3C5B",
"K 	c #1B3B5C",
"L 	c #1A3B5B",
"M 	c #1A3B5A",
"N 	c #1B3C5A",
"O 	c #1B3B5A",
"P 	c #1A3C5A",
"Q 	c #1A3B59",
"R 	c #193B59",
"S 	c #1A3B58",
"T 	c #193A59",
"U 	c #1A3A59",
"V 	c #193B58",
"W 	c #1A3A58",
"X 	c #193A58",
"Y 	c #193958",
"Z 	c #1A3958",
"` 	c #193957",
" .	c #193A57",
"..	c #183A57",
"+.	c #183958",
"@.	c #183857",
"#.	c #183957",
"$.	c #183956",
"%.	c #193956",
"&.	c #183856",
"*.	c #2A3E52",
"  . + +   @ +   + . #   @     + @ . . . + @ $   ",
"% & @ @ * % @ * & * @ % & @ * * * * = & * @ @ @ ",
"- % % % % - % - % & % % & ; % - - > - % - , % % ",
"' , ) ' > > ' > > > > ' > ' > > > ) , > , , > > ",
"! ~ ! { ] ' { ! ~ ~ ^ > ~ ~ ] ~ ] ] { ~ ~ ] ! ~ ",
"/ ( / / / / / / / / / / / / _ _ / / ] ] / ] / ] ",
": : : < : : [ : } : < | | / / < 1 | } < [ < } < ",
"2 2 3 4 5 6 3 3 3 | 7 | | 6 3 2 2 2 3 3 2 3 2 2 ",
"3 8 8 3 8 8 8 8 8 8 8 3 3 9 9 3 8 3 9 3 0 8 3 9 ",
"a a b 9 9 9 9 9 c 9 9 d d 9 a 9 b 9 c 9 b e e a ",
"f g h h g f g f h d d d d d d c f g h h f b f f ",
"i i j i i i j j j d d d d d d j j f j k j j i j ",
"l m m i m m m i d d d d d d d d n o l i p o o p ",
"q p r p s q t r d d d d d d d d s t s s s u m q ",
"q q q q v v v v v d d d d d d q v q q s v q v v ",
"w x y z z x z w w d d d d d d A v v w z B v v x ",
"C C D D C C A A A A A d d A C C A C C C C x C E ",
"F G F H F F D D D D D F F F D D D F F D F D G F ",
"I J I J J K J I J I J I I J I L I J I J I J I J ",
"M N J L O J P L M O P P L M M P L M L L J M L J ",
"Q M M M M M Q M Q M M M Q M M R M M M M M Q M M ",
"S T U Q U T T U R U Q U V W T T T R T U T U U T ",
"X X X X Y X X Z X X X X X W X X X X X W X X X Y ",
"`  . .` .. . .` ` Y ` `  ...` ` ` +.` ` ` `  .X ",
"` @.#.#.` $.%.$.%.#.$.$.%.#.#.%.$.#.%.&.%.` $.` ",
"*.*.*.*.*.*.*.*.*.*.*.*.*.*.*.*.*.*.*.*.*.*.*.*."};
