/* XPM */
static char * stick_toggled_inactive_xpm[] = {
"24 26 101 2",
"  	c #17344E",
". 	c #17334D",
"+ 	c #16344E",
"@ 	c #17334E",
"# 	c #16334E",
"$ 	c #17344D",
"% 	c #16334D",
"& 	c #16344D",
"* 	c #17334C",
"= 	c #16334C",
"- 	c #16334B",
"; 	c #17334B",
"> 	c #16324C",
", 	c #16324B",
"' 	c #17324B",
") 	c #16314A",
"! 	c #16314B",
"~ 	c #16324A",
"{ 	c #15324B",
"] 	c #15314A",
"^ 	c #163149",
"/ 	c #153149",
"( 	c #153048",
"_ 	c #163148",
": 	c #153148",
"< 	c #153049",
"[ 	c #163049",
"} 	c #163048",
"| 	c #152F48",
"1 	c #152F47",
"2 	c #153047",
"3 	c #152F46",
"4 	c #142F46",
"5 	c #142F47",
"6 	c #143047",
"7 	c #142E46",
"8 	c #142E45",
"9 	c #142F45",
"0 	c #142D45",
"a 	c #142E44",
"b 	c #949AA0",
"c 	c #142D44",
"d 	c #142D43",
"e 	c #132D44",
"f 	c #132D43",
"g 	c #142D42",
"h 	c #132C43",
"i 	c #132C42",
"j 	c #142C43",
"k 	c #132D42",
"l 	c #132C41",
"m 	c #132B42",
"n 	c #142C42",
"o 	c #132B41",
"p 	c #122B41",
"q 	c #122B40",
"r 	c #132B40",
"s 	c #132A40",
"t 	c #132A3F",
"u 	c #122B3F",
"v 	c #122A40",
"w 	c #122A3F",
"x 	c #12293F",
"y 	c #12293E",
"z 	c #11293E",
"A 	c #122A3E",
"B 	c #12283D",
"C 	c #11293D",
"D 	c #12293D",
"E 	c #11283D",
"F 	c #11283C",
"G 	c #12283C",
"H 	c #12273C",
"I 	c #11273D",
"J 	c #11273C",
"K 	c #11273B",
"L 	c #10273B",
"M 	c #11283B",
"N 	c #11273A",
"O 	c #10273A",
"P 	c #11263B",
"Q 	c #11263A",
"R 	c #10263A",
"S 	c #112639",
"T 	c #102639",
"U 	c #102539",
"V 	c #102538",
"W 	c #102638",
"X 	c #112538",
"Y 	c #112638",
"Z 	c #112539",
"` 	c #102437",
" .	c #0F2537",
"..	c #0F2438",
"+.	c #0F2538",
"@.	c #102537",
"#.	c #102438",
"$.	c #0F2437",
"%.	c #102436",
"&.	c #0F2436",
"*.	c #4A5969",
"  .   + @ . # $ $ . .   . $ + $ %     @ $     & ",
"* * = * % . * = % $ * * * * % . * = = * % % * = ",
"- ; * > > > > > = , = - > > - > ' = > > - = = , ",
") , ! , ! ! , ! ~ ~ ! ) ~ , , ~ ) ~ ! , , { ~ ~ ",
") ] ^ ) ) ) ] ] ^ / ^ / ) ] ^ ) / ] ) ] ^ ] ) ) ",
"( _ : < [ < < [ < : ( ( : ( ( < } [ < _ < < [ ( ",
"( | | ( ( | ( ( ( ( ( 1 1 | ( ( 2 | 1 2 ( ( ( ( ",
"3 3 1 2 4 1 5 2 1 1 1 5 5 1 1 3 5 5 1 1 5 6 1 5 ",
"7 7 3 4 7 4 8 8 3 8 7 4 7 7 4 7 7 7 8 4 9 4 7 7 ",
"8 0 0 8 a 8 8 8 8 a 0 b b 8 8 8 8 8 8 0 0 8 8 8 ",
"a c c c d c c e d b b b b b b c e e f e c e c c ",
"g h i h j j k h f b b b b b b h d j h d g f j h ",
"l m i m i i i m b b b b b b b b i i n i l i o n ",
"o o p p o o o o b b b b b b b b o p o p p o o o ",
"q r s r q t u q q b b b b b b r v q r u q v t r ",
"w w w t w w t w w b b b b b b w x w w w w w x w ",
"y y z y A y y y y y y b b y z A z y A y y y y y ",
"B C D B E D B D D B B C D D B D B B B B B D D B ",
"F F F G F F H F F I J G F F J F F F G H B J G F ",
"K K K L K K K K K M L K M K K L J K K J K K M K ",
"L N K N K N N K O N N P Q N Q O R K P N K K N N ",
"S T S R T T R Q T Q T T S T T S T Q T U T S U S ",
"V W U T X V Y V W T V U V V W V T V T U T Z T V ",
"`  ...V +.` @.V @.V V @.@. .@.#.` +.@.@. .V `  .",
"$.%.$.%.&.&.%.` $.` %.&.$.%.%.&.$.&.%.&.` %.` %.",
"*.*.*.*.*.*.*.*.*.*.*.*.*.*.*.*.*.*.*.*.*.*.*.*."};
