/* XPM */
static char * stick_toggled_pressed_xpm[] = {
"24 26 91 1",
" 	c #20476A",
".	c #20476B",
"+	c #20466B",
"@	c #1F476A",
"#	c #1F466A",
"$	c #20466A",
"%	c #204669",
"&	c #1F4669",
"*	c #1F4569",
"=	c #204569",
"-	c #204568",
";	c #1F4568",
">	c #1F4668",
",	c #1F4567",
"'	c #1F4467",
")	c #1F4468",
"!	c #1E4568",
"~	c #1F4466",
"{	c #1E4567",
"]	c #1E4467",
"^	c #1E4566",
"/	c #1F4566",
"(	c #1E4466",
"_	c #1F4366",
":	c #1E4465",
"<	c #1E4366",
"[	c #1F4465",
"}	c #1E4365",
"|	c #1F4365",
"1	c #1E4264",
"2	c #1F4364",
"3	c #1E4364",
"4	c #1E4265",
"5	c #1D4263",
"6	c #1E4263",
"7	c #949AA0",
"8	c #1E4363",
"9	c #1D4264",
"0	c #1D4163",
"a	c #1E4163",
"b	c #1D4262",
"c	c #1D4162",
"d	c #1E4162",
"e	c #1E4262",
"f	c #1D4061",
"g	c #1D4161",
"h	c #1D4062",
"i	c #1E4062",
"j	c #1D4060",
"k	c #1C4061",
"l	c #1C4060",
"m	c #1D3F5F",
"n	c #1C3F5F",
"o	c #1D3F60",
"p	c #1D405F",
"q	c #1C3F60",
"r	c #1C3F5E",
"s	c #1C405F",
"t	c #1D3E5E",
"u	c #1C3E5E",
"v	c #1D3E5F",
"w	c #1D3F5E",
"x	c #1C3E5D",
"y	c #1C3F5D",
"z	c #1B3F5D",
"A	c #1B3E5D",
"B	c #1C3D5C",
"C	c #1C3D5D",
"D	c #1B3D5C",
"E	c #1B3D5D",
"F	c #1C3E5C",
"G	c #1B3E5C",
"H	c #1B3D5B",
"I	c #1C3D5B",
"J	c #1C3E5B",
"K	c #1B3C5B",
"L	c #1B3C5C",
"M	c #1B3C5A",
"N	c #1B3D5A",
"O	c #1A3B5A",
"P	c #1B3B5A",
"Q	c #1A3C5A",
"R	c #1B3B59",
"S	c #1A3B59",
"T	c #1B3C59",
"U	c #1B3B58",
"V	c #1B3A59",
"W	c #1B3A58",
"X	c #1A3A58",
"Y	c #1A3B58",
"Z	c #2A3E52",
" . . ..++. @+# $# ..@..+",
"@$#% %#$$@$% #$@$ $##$&&",
"%%%&&%&&&&%*&&%&*%%=%=&*",
"-;;;;>;*&;;;;;;>;*;;*;;>",
",;;';)';;,;!);,,)',;'!,,",
"'~'{],'^~]]/'''(](,'(',/",
"~~_:(~((<_(~(~((((~<(~~~",
"[}[|}<}:}}}|<}:}:|}}|}:|",
"121}}133}34}1}1}313}}334",
"531313156357718635511691",
"56006ab667777775a56a0a5b",
"cccddeccd777777cbccacebc",
"ffgggfgf77777777hcgggcfi",
"ffjfjfkf77777777jjjjflfl",
"mnllojppj777777lqpqlmlmo",
"nmnmnmnnm777777rmnsnmpnn",
"rntrrnruvuu77vvrrwrrrurr",
"rxxryrzxuxxxuxAxuxuryxxx",
"BAABCAACADxxBCAxCCEFFxxA",
"DBGBDDHDIDBDBDBIBDBBBJDF",
"HIHHKBDIDKIDHHIHILLHHILD",
"KMHKMKMMMHMKNKKMMMKKMMMK",
"MOMPPQRRSRPQOMTTMMQMQRMQ",
"TSTTRRRTTRTSSSSTSSSRTRRU",
"UVUWUSXYUUXUYYXRXUYYYYYU",
"ZZZZZZZZZZZZZZZZZZZZZZZZ"};
