/* XPM */
static char * title_4_inactive_xpm[] = {
"2 26 50 1",
" 	c #4D6177",
".	c #4E6277",
"+	c #4C5F75",
"@	c #4C6075",
"#	c #4B5E74",
"$	c #4B5E73",
"%	c #4A5D72",
"&	c #495D71",
"*	c #495B6F",
"=	c #495B70",
"-	c #48596E",
";	c #485A6E",
">	c #47586C",
",	c #46596C",
"'	c #45576A",
")	c #45566A",
"!	c #445569",
"~	c #445568",
"{	c #435466",
"]	c #425466",
"^	c #415265",
"/	c #415264",
"(	c #405062",
"_	c #405163",
":	c #3E4F60",
"<	c #3F4F60",
"[	c #3E4E60",
"}	c #3E4E5F",
"|	c #3C4C5D",
"1	c #3D4C5E",
"2	c #3C4B5C",
"3	c #3C4A5C",
"4	c #3B4959",
"5	c #3B4A5A",
"6	c #394858",
"7	c #3A4858",
"8	c #384756",
"9	c #384656",
"0	c #364454",
"a	c #374454",
"b	c #364352",
"c	c #364452",
"d	c #344251",
"e	c #354251",
"f	c #33404F",
"g	c #323E4C",
"h	c #323F4C",
"i	c #313D4A",
"j	c #313D4B",
"k	c #4A5969",
" .",
"+@",
"#$",
"%&",
"*=",
"-;",
">,",
"')",
"!~",
"{]",
"^/",
"(_",
":<",
"[}",
"|1",
"23",
"45",
"67",
"89",
"0a",
"bc",
"de",
"ff",
"gh",
"ij",
"kk"};
