/* XPM */
static char * title_4_active_xpm[] = {
"2 26 38 1",
" 	c #18344F",
".	c #18344E",
"+	c #17344E",
"@	c #17334C",
"#	c #17334D",
"$	c #17324C",
"%	c #17324B",
"&	c #16324B",
"*	c #16314B",
"=	c #163149",
"-	c #153048",
";	c #152F48",
">	c #152F47",
",	c #142E46",
"'	c #152E46",
")	c #142D44",
"!	c #152D44",
"~	c #132D43",
"{	c #142C42",
"]	c #142B41",
"^	c #132A40",
"/	c #132B40",
"(	c #132A3F",
"_	c #13293E",
":	c #12293D",
"<	c #12283D",
"[	c #12283C",
"}	c #12273C",
"|	c #11273B",
"1	c #112639",
"2	c #112538",
"3	c #102437",
"4	c #102335",
"5	c #102436",
"6	c #0F2335",
"7	c #0F2233",
"8	c #0E2132",
"9	c #2A3E52",
"  ",
".+",
"@#",
"$%",
"&*",
"==",
"-;",
">>",
",'",
")!",
"~{",
"]{",
"^/",
"((",
"__",
":<",
"[}",
"||",
"11",
"22",
"33",
"45",
"66",
"77",
"88",
"99"};
