/* XPM */
static char * top_left_inactive_xpm[] = {
"8 26 88 1",
" 	c None",
".	c #4E6177",
"+	c #4D6277",
"@	c #4C6075",
"#	c #4C5F75",
"$	c #4C6076",
"%	c #4B5E73",
"&	c #4B5F74",
"*	c #4B5E74",
"=	c #4A5D71",
"-	c #4A5C71",
";	c #4A5D72",
">	c #485B70",
",	c #495B70",
"'	c #485C70",
")	c #495B6F",
"!	c #48596E",
"~	c #485A6E",
"{	c #47596E",
"]	c #48596D",
"^	c #475A6E",
"/	c #46586C",
"(	c #46596C",
"_	c #47586C",
":	c #45576A",
"<	c #45566A",
"[	c #445668",
"}	c #445569",
"|	c #445568",
"1	c #435568",
"2	c #435366",
"3	c #435466",
"4	c #425367",
"5	c #415264",
"6	c #415164",
"7	c #425163",
"8	c #425164",
"9	c #405062",
"0	c #415163",
"a	c #405162",
"b	c #405063",
"c	c #3F4F61",
"d	c #3F4F60",
"e	c #3D4D5F",
"f	c #3E4E5F",
"g	c #3E4D5E",
"h	c #3E4E5E",
"i	c #3E4D5F",
"j	c #3D4C5D",
"k	c #3C4C5D",
"l	c #3B4B5B",
"m	c #3C4B5B",
"n	c #3B4A5C",
"o	c #3C4A5B",
"p	c #3B4A5B",
"q	c #3A4959",
"r	c #3B4959",
"s	c #394857",
"t	c #394757",
"u	c #384857",
"v	c #394858",
"w	c #374655",
"x	c #384656",
"y	c #384655",
"z	c #374656",
"A	c #374554",
"B	c #374454",
"C	c #364453",
"D	c #364553",
"E	c #364554",
"F	c #364352",
"G	c #354352",
"H	c #344150",
"I	c #344250",
"J	c #34424F",
"K	c #323F4E",
"L	c #33404E",
"M	c #33404F",
"N	c #313E4C",
"O	c #323F4C",
"P	c #313F4C",
"Q	c #323E4C",
"R	c #303C4A",
"S	c #313D4A",
"T	c #303D4B",
"U	c #313D4B",
"V	c #303D4A",
"W	c #4A5969",
"     ..+",
"   @@#$@",
"  %%&%*%",
" =-===;;",
" >>,>'>)",
"!~{~!]~^",
"/(_////(",
":<::::<:",
"[}||||1[",
"22322342",
"56567686",
"90ab9a99",
"ccdcdccc",
"efeghfig",
"jjjjjjkj",
"lmnmoppl",
"qqqqrqqq",
"sttsutvv",
"wxyywxzz",
"ABCAADEC",
"FGGGGGGG",
"HIHHJHII",
"KLLMLLLL",
"NOONPQPN",
"RSTUTSVS",
"WWWWWWWW"};
