/* XPM */
static char * top_right_inactive_xpm[] = {
"8 26 88 1",
" 	c None",
".	c #4D6277",
"+	c #4E6177",
"@	c #4C6075",
"#	c #4C6076",
"$	c #4C5F75",
"%	c #4B5E73",
"&	c #4B5E74",
"*	c #4B5F74",
"=	c #4A5D72",
"-	c #4A5D71",
";	c #4A5C71",
">	c #495B6F",
",	c #485B70",
"'	c #485C70",
")	c #495B70",
"!	c #475A6E",
"~	c #485A6E",
"{	c #48596D",
"]	c #48596E",
"^	c #47596E",
"/	c #46596C",
"(	c #46586C",
"_	c #47586C",
":	c #45576A",
"<	c #45566A",
"[	c #445668",
"}	c #435568",
"|	c #445568",
"1	c #445569",
"2	c #435366",
"3	c #425367",
"4	c #435466",
"5	c #415164",
"6	c #425164",
"7	c #425163",
"8	c #415264",
"9	c #405062",
"0	c #405162",
"a	c #405063",
"b	c #415163",
"c	c #3F4F61",
"d	c #3F4F60",
"e	c #3E4D5E",
"f	c #3E4D5F",
"g	c #3E4E5F",
"h	c #3E4E5E",
"i	c #3D4D5F",
"j	c #3D4C5D",
"k	c #3C4C5D",
"l	c #3B4B5B",
"m	c #3B4A5B",
"n	c #3C4A5B",
"o	c #3C4B5B",
"p	c #3B4A5C",
"q	c #3A4959",
"r	c #3B4959",
"s	c #394858",
"t	c #394757",
"u	c #384857",
"v	c #394857",
"w	c #374656",
"x	c #384656",
"y	c #374655",
"z	c #384655",
"A	c #364453",
"B	c #364554",
"C	c #364553",
"D	c #374554",
"E	c #374454",
"F	c #354352",
"G	c #364352",
"H	c #344250",
"I	c #344150",
"J	c #34424F",
"K	c #33404E",
"L	c #33404F",
"M	c #323F4E",
"N	c #313E4C",
"O	c #313F4C",
"P	c #323E4C",
"Q	c #323F4C",
"R	c #313D4A",
"S	c #303D4A",
"T	c #303D4B",
"U	c #313D4B",
"V	c #303C4A",
"W	c #4A5969",
".++     ",
"@#$@@   ",
"%&%*%%  ",
"==---;- ",
">,',),, ",
"!~{]~^~]",
"/((((_/(",
":<::::<:",
"[}||||1[",
"23422422",
"56575858",
"9909a0b9",
"cccdcdcc",
"efgheigi",
"jkjjjjjj",
"lmmnopol",
"qqqrqqqq",
"sstuvttv",
"wwxyzzxy",
"ABCDDAED",
"FFFFFFFG",
"HHIJIIHI",
"KKKKLKKM",
"NOPONQQN",
"RSRTUTRV",
"WWWWWWWW"};
