/* XPM */
static char * top_left_active_xpm[] = {
"8 26 86 1",
" 	c None",
".	c #183450",
"+	c #18354F",
"@	c #183550",
"#	c #18344E",
"$	c #18334F",
"%	c #17344E",
"&	c #17334D",
"*	c #16324C",
"=	c #16324B",
"-	c #17324B",
";	c #17324C",
">	c #17314A",
",	c #17314B",
"'	c #16314A",
")	c #16314B",
"!	c #16324A",
"~	c #163149",
"{	c #153049",
"]	c #153149",
"^	c #163049",
"/	c #162F48",
"(	c #152F48",
"_	c #153048",
":	c #163048",
"<	c #152F46",
"[	c #152F47",
"}	c #162F47",
"|	c #152E45",
"1	c #152E46",
"2	c #142E45",
"3	c #142D44",
"4	c #142E44",
"5	c #142D45",
"6	c #152D44",
"7	c #142C43",
"8	c #142D43",
"9	c #132C43",
"0	c #142C42",
"a	c #132C41",
"b	c #142B42",
"c	c #132C42",
"d	c #132B41",
"e	c #132B40",
"f	c #132A41",
"g	c #132A3F",
"h	c #132A40",
"i	c #122A3F",
"j	c #12293E",
"k	c #132A3E",
"l	c #13293E",
"m	c #12283D",
"n	c #12283C",
"o	c #11283C",
"p	c #11273C",
"q	c #12283B",
"r	c #12273C",
"s	c #12273B",
"t	c #11273A",
"u	c #11263A",
"v	c #12273A",
"w	c #112639",
"x	c #102639",
"y	c #112538",
"z	c #112537",
"A	c #102638",
"B	c #112637",
"C	c #102437",
"D	c #102536",
"E	c #102537",
"F	c #102436",
"G	c #102435",
"H	c #102336",
"I	c #102335",
"J	c #0F2335",
"K	c #0F2336",
"L	c #0F2435",
"M	c #0F2334",
"N	c #0F2234",
"O	c #102334",
"P	c #0F2233",
"Q	c #0F2232",
"R	c #0F2132",
"S	c #0E2132",
"T	c #0F2131",
"U	c #2A3E52",
"     .+@",
"   #$%$%",
"  &&&&&&",
" *=*-;*=",
" >,')!>)",
"~{]~~^~^",
"/(_/:_(:",
"<[[[}[<<",
"||12|2||",
"33435652",
"77887797",
"0aa0aabc",
"dedfedde",
"ggghihgg",
"jjjkjjjl",
"mmnnmmmm",
"opqrqrps",
"stutvttt",
"wxwwxxww",
"yzzABzAy",
"CDCEFFEC",
"GHIFJGKL",
"MNOMMNMN",
"PPPPQQRP",
"SSRRTSSS",
"UUUUUUUU"};
