/* XPM */
static char * top_right_active_xpm[] = {
"8 26 86 1",
" 	c None",
".	c #183550",
"+	c #18354F",
"@	c #183450",
"#	c #17344E",
"$	c #18334F",
"%	c #18344E",
"&	c #17334D",
"*	c #16324B",
"=	c #16324C",
"-	c #17324C",
";	c #17324B",
">	c #16314B",
",	c #17314A",
"'	c #16324A",
")	c #16314A",
"!	c #17314B",
"~	c #163049",
"{	c #163149",
"]	c #153149",
"^	c #153049",
"/	c #163048",
"(	c #152F48",
"_	c #153048",
":	c #162F48",
"<	c #152F46",
"[	c #152F47",
"}	c #162F47",
"|	c #152E45",
"1	c #142E45",
"2	c #152E46",
"3	c #142D45",
"4	c #152D44",
"5	c #142D44",
"6	c #142E44",
"7	c #142C43",
"8	c #132C43",
"9	c #142D43",
"0	c #132C42",
"a	c #142B42",
"b	c #132C41",
"c	c #142C42",
"d	c #132B40",
"e	c #132B41",
"f	c #132A41",
"g	c #132A3F",
"h	c #132A40",
"i	c #122A3F",
"j	c #13293E",
"k	c #12293E",
"l	c #132A3E",
"m	c #12283D",
"n	c #12283C",
"o	c #12273B",
"p	c #11273C",
"q	c #12273C",
"r	c #12283B",
"s	c #11283C",
"t	c #11273A",
"u	c #12273A",
"v	c #11263A",
"w	c #112639",
"x	c #102639",
"y	c #112538",
"z	c #102638",
"A	c #112537",
"B	c #112637",
"C	c #102437",
"D	c #102537",
"E	c #102436",
"F	c #102536",
"G	c #0F2435",
"H	c #0F2336",
"I	c #102435",
"J	c #0F2335",
"K	c #102335",
"L	c #102336",
"M	c #0F2234",
"N	c #0F2334",
"O	c #102334",
"P	c #0F2233",
"Q	c #0F2132",
"R	c #0F2232",
"S	c #0E2132",
"T	c #0F2131",
"U	c #2A3E52",
".+@     ",
"#$#$%   ",
"&&&&&&  ",
"*=-;=*= ",
">,'>)!, ",
"~{~{{]^{",
"/(_/:_(:",
"<<[}[[[<",
"||1|12||",
"13435655",
"78779977",
"0abbcbbc",
"deedfede",
"gghihggg",
"jkkklkkk",
"mmmmnnmm",
"opqrqrps",
"tttutvto",
"wwxxwwxw",
"yzABzAAy",
"CDEEDCFC",
"GHIJEKLI",
"MNMNNOMN",
"PQRRPPPP",
"SSSTQQSS",
"UUUUUUUU"};
